<?xml version="1.0" encoding="UTF-8"?>
<svg width="24px" height="24px" viewBox="0 0 24 24" version="1.1" xmlns="http://www.w3.org/2000/svg" xmlns:xlink="http://www.w3.org/1999/xlink">
    <!-- Generator: Sketch 54 (76480) - https://sketchapp.com -->
    <title>icon_menu_marketing_selected</title>
    <desc>Created with Sketch.</desc>
    <g id="icon_menu_marketing_selected" stroke="none" stroke-width="1" fill="none" fill-rule="evenodd">
        <rect id="Rectangle-3" fill-rule="nonzero" x="0" y="0" width="24" height="24"></rect>
        <path d="M6.5,11.5 C3.73857625,11.5 1.5,9.26142375 1.5,6.5 C1.5,3.73857625 3.73857625,1.5 6.5,1.5 C9.26142375,1.5 11.5,3.73857625 11.5,6.5 C11.5,7.39268502 11.5,9.05935169 11.5,11.5 C9.11493081,11.5 7.44826414,11.5 6.5,11.5 Z M17.5,11.5 C16.5360895,11.5 14.8694228,11.5 12.5,11.5 C12.5,9.04370534 12.5,7.37703867 12.5,6.5 C12.5,3.73857625 14.7385763,1.5 17.5,1.5 C20.2614237,1.5 22.5,3.73857625 22.5,6.5 C22.5,9.26142375 20.2614237,11.5 17.5,11.5 Z M6.5,12.5 C7.44826414,12.5 9.11493081,12.5 11.5,12.5 C11.5,14.9406483 11.5,16.607315 11.5,17.5 C11.5,20.2614237 9.26142375,22.5 6.5,22.5 C3.73857625,22.5 1.5,20.2614237 1.5,17.5 C1.5,14.7385763 3.73857625,12.5 6.5,12.5 Z M17.5,12.5 C20.2614237,12.5 22.5,14.7385763 22.5,17.5 C22.5,20.2614237 20.2614237,22.5 17.5,22.5 C14.7385763,22.5 12.5,20.2614237 12.5,17.5 C12.5,16.6229613 12.5,14.9562947 12.5,12.5 C14.8694228,12.5 16.5360895,12.5 17.5,12.5 Z" id="Combined-Shape" fill="#FFFFFF" fill-rule="nonzero"></path>
    </g>
</svg>