<?xml version="1.0" encoding="UTF-8"?>
<svg width="24px" height="24px" viewBox="0 0 24 24" version="1.1" xmlns="http://www.w3.org/2000/svg" xmlns:xlink="http://www.w3.org/1999/xlink">
    <!-- Generator: Sketch 54 (76480) - https://sketchapp.com -->
    <title>icon_menu_promotion_selected</title>
    <desc>Created with Sketch.</desc>
    <g id="icon_menu_promotion_selected" stroke="none" stroke-width="1" fill="none" fill-rule="evenodd">
        <rect id="Rectangle-3" fill-rule="nonzero" x="0" y="0" width="24" height="24"></rect>
        <g id="促销" transform="translate(2.000000, 2.000000)" fill="#FFFFFF" fill-rule="nonzero">
            <path d="M8.71613977,19.9756306 C6.86893615,19.9756306 5.74306799,18.3964908 5.10702559,17.4217132 C2.53604959,17.124406 0.944725117,15.6744243 0.93985123,13.5981479 C0.949599004,13.1619349 1.02027039,12.7281589 1.14699146,12.3114414 C1.20304117,12.1018643 1.25421701,11.8995979 1.29077117,11.6827099 C1.16405008,11.4487632 1.02270732,11.2270013 0.864305957,11.0125503 C0.571872676,10.6372609 0.340362988,10.2205434 0.177087734,9.77458268 C-0.597860488,7.30108443 1.48328977,5.80967467 2.56285598,5.10783477 C2.8016765,2.56853904 4.34426209,0.94066041 6.53263787,0.94066041 C6.86893615,0.943097363 7.2027975,0.97721457 7.53178494,1.045449 C7.66094297,1.07469232 7.78766406,1.11368344 7.91194822,1.15998537 C8.0435432,1.21359814 8.18001207,1.24771535 8.31891787,1.26721092 C8.64303143,1.15267455 8.9452125,0.982088457 9.21327635,0.76520043 C9.52033131,0.526379902 9.85906652,0.331424395 10.2197343,0.185207754 C10.5682172,0.0731083203 10.9337589,0.0146216602 11.2993005,0.0121847266 C13.0977652,0.0121847266 14.2285072,1.51577922 14.9279102,2.52223711 C17.4355256,2.79030096 19.0658412,4.2743999 19.1023954,6.34336541 C19.0975215,6.81369563 19.0244132,7.28158889 18.8903813,7.73486049 C18.8367685,7.94443768 18.7855927,8.14670404 18.7490385,8.35628123 C18.8757596,8.59753869 19.0171023,8.83392227 19.1706298,9.06055807 C19.55323,9.6429877 19.948015,10.2473498 19.9748214,11.2026319 C20.0284341,13.1131961 18.7758449,14.0026806 17.6719092,14.7849397 C17.6061117,14.8336786 17.5403142,14.8799805 17.4745168,14.9262824 C17.1869574,17.4338979 15.7515973,19.0106007 13.6996904,19.0520288 L13.6241451,19.0544657 C13.1781844,19.042281 12.7370975,18.9716096 12.3106323,18.8448885 C12.0986181,18.7912757 11.8963518,18.737663 11.6843376,18.7011088 C11.4382063,18.8327038 11.2018227,18.9837943 10.9800608,19.1519435 C10.6169561,19.4419398 10.2075495,19.6661387 9.76889959,19.8196661 C9.42772742,19.9195808 9.07193359,19.9731936 8.71613977,19.9756306 Z M6.04122811,7.15159746 C6.04122811,8.07463442 6.78978858,8.825071 7.71282556,8.825071 C8.63586253,8.8231949 9.38442301,8.07651052 9.38629911,7.15347354 C9.38629911,6.22856048 8.63773861,5.48 7.71470165,5.48 C6.79166468,5.48 6.04122811,6.22856049 6.04122811,7.15159746 Z M8.38629911,7.15347354 C8.3855465,7.52273968 8.08438687,7.8237675 7.71180914,7.82507024 C7.34222562,7.82451781 7.04122811,7.52271379 7.04122811,7.15159746 C7.04122811,6.78154955 7.34324517,6.48 7.71470165,6.48 C8.08557024,6.48 8.38629911,6.78096198 8.38629911,7.15347354 Z M12.2715975,14.495071 C13.1946344,14.4931949 13.9431949,13.7465105 13.945071,12.8234735 C13.945071,11.8985605 13.1965105,11.15 12.2734735,11.15 C11.3504366,11.15 10.6,11.8985605 10.6,12.8215975 C10.6,13.7446344 11.3485605,14.495071 12.2715975,14.495071 Z M12.945071,12.8234735 C12.9443184,13.1927397 12.6431588,13.4937675 12.270581,13.4950702 C11.9009975,13.4945178 11.6,13.1927138 11.6,12.8215975 C11.6,12.4515495 11.9020171,12.15 12.2734735,12.15 C12.6443421,12.15 12.945071,12.450962 12.945071,12.8234735 Z M13.0339105,6.10426407 L6.10426407,13.0339105 C5.86994949,13.2682251 5.86994949,13.6481241 6.10426407,13.8824387 C6.33857864,14.1167532 6.71847763,14.1167532 6.95279221,13.8824387 L13.8824387,6.95279221 C14.1167532,6.71847763 14.1167532,6.33857864 13.8824387,6.10426407 C13.6481241,5.86994949 13.2682251,5.86994949 13.0339105,6.10426407 Z" id="形状结合"></path>
        </g>
    </g>
</svg>