<?xml version="1.0" encoding="UTF-8"?>
<svg width="24px" height="24px" viewBox="0 0 24 24" version="1.1" xmlns="http://www.w3.org/2000/svg" xmlns:xlink="http://www.w3.org/1999/xlink">
    <!-- Generator: Sketch 54 (76480) - https://sketchapp.com -->
    <title>icon_menu_logistics_normal</title>
    <desc>Created with Sketch.</desc>
    <g id="icon_menu_logistics_normal" stroke="none" stroke-width="1" fill="none" fill-rule="evenodd">
        <rect id="Rectangle-3" fill-rule="nonzero" x="0" y="0" width="24" height="24"></rect>
        <path d="M13,18.0000256 L11,18.0000255 C10.9999862,19.656868 9.65684575,21 8,21 C6.34315418,21 5.00001366,19.6568679 5,18.0000253 L4,18.0000252 C2.8954305,18.0000252 2,17.1045947 2,16.0000252 C2,14.3333502 2,12.6666751 2,11 C2,9 4,7 6,7 C7.33333333,7 8.33333333,7 9,7 L9,5 C9,3.8954305 9.8954305,3 11,3 L20,3.00000058 C21.1045693,3.00000058 21.9999997,3.89543073 22,5 L22.0000043,16.0000252 C22.0000046,17.1045947 21.1045744,18.0000255 20.0000049,18.0000258 L19,18.0000258 C18.9999861,19.6568682 17.6568457,21 16,21 C14.3431543,21 13.0000138,19.6568681 13,18.0000256 Z M13.1706966,17.0000258 C13.5825257,15.8348199 14.6937715,15 16,15 C17.3062285,15 18.4174743,15.8348199 18.8293034,17.0000258 L20.0000238,17.0000258 C20.5523086,17.0000258 21.0000238,16.5523105 21.0000238,16.0000258 L21.0000238,5 C21.0000238,4.44771525 20.5523086,4 20.0000238,4 L11,4 C10.4477153,4 10,4.44771525 10,5 L10,8 C8.33333333,8 7,8 6,8 C4.5,8 3,9.5 3,11 C3,12.6666753 3,14.3333505 3,16.0000258 C3,16.5523105 3.44771525,17.0000258 4,17.0000258 L5.17069659,17.0000258 C5.58252572,15.8348199 6.69377154,15 8,15 C9.30622846,15 10.4174743,15.8348199 10.8293034,17.0000258 L13.1706966,17.0000258 Z M8,20 C9.1045695,20 10,19.1045695 10,18 C10,16.8954305 9.1045695,16 8,16 C6.8954305,16 6,16.8954305 6,18 C6,19.1045695 6.8954305,20 8,20 Z M16,20 C17.1045695,20 18,19.1045695 18,18 C18,16.8954305 17.1045695,16 16,16 C14.8954305,16 14,16.8954305 14,18 C14,19.1045695 14.8954305,20 16,20 Z M9.5,9 C9.77614237,9 10,9.22385763 10,9.5 L10,12 L6.5,12 C6.22385763,12 6,11.7761424 6,11.5 C6,11.2238576 6.22385763,11 6.5,11 L9,11 L9,9.5 C9,9.22385763 9.22385763,9 9.5,9 Z" id="Combined-Shape" fill="#99ABB4" fill-rule="nonzero"></path>
    </g>
</svg>