<?xml version="1.0" encoding="UTF-8"?>
<svg width="24px" height="24px" viewBox="0 0 24 24" version="1.1" xmlns="http://www.w3.org/2000/svg" xmlns:xlink="http://www.w3.org/1999/xlink">
    <!-- Generator: Sketch 54 (76480) - https://sketchapp.com -->
    <title>icon_menu_member_selected</title>
    <desc>Created with Sketch.</desc>
    <g id="icon_menu_member_selected" stroke="none" stroke-width="1" fill="none" fill-rule="evenodd">
        <rect id="Rectangle-3" fill-rule="nonzero" x="0" y="0" width="24" height="24"></rect>
        <path d="M21.8355755,7.98654713 L20,19 L4,19 L2.16442452,7.98654713 C2.11093008,7.99539645 2.05600265,8 2,8 C1.44771525,8 1,7.55228475 1,7 C1,6.44771525 1.44771525,6 2,6 C2.55228475,6 3,6.44771525 3,7 C3,7.16078966 2.96205173,7.31271602 2.89462285,7.44731143 L8,10 L11.5037764,3.86839134 C11.2027944,3.69603054 11,3.37169785 11,3 C11,2.44771525 11.4477153,2 12,2 C12.5522847,2 13,2.44771525 13,3 C13,3.37169785 12.7972056,3.69603054 12.4962236,3.86839134 L16,10 L21.1053771,7.44731143 C21.0379483,7.31271602 21,7.16078966 21,7 C21,6.44771525 21.4477153,6 22,6 C22.5522847,6 23,6.44771525 23,7 C23,7.55228475 22.5522847,8 22,8 C21.9439973,8 21.8890699,7.99539645 21.8355755,7.98654713 Z M4.5,21 L19.5,21 C19.7761424,21 20,21.2238576 20,21.5 C20,21.7761424 19.7761424,22 19.5,22 L4.5,22 C4.22385763,22 4,21.7761424 4,21.5 C4,21.2238576 4.22385763,21 4.5,21 Z" id="合并形状" fill="#FFFFFF" fill-rule="nonzero"></path>
    </g>
</svg>