<?xml version="1.0" encoding="UTF-8"?>
<svg width="24px" height="24px" viewBox="0 0 24 24" version="1.1" xmlns="http://www.w3.org/2000/svg" xmlns:xlink="http://www.w3.org/1999/xlink">
    <!-- Generator: Sketch 54 (76480) - https://sketchapp.com -->
    <title>icon_menu_system_selected</title>
    <desc>Created with Sketch.</desc>
    <g id="icon_menu_system_selected" stroke="none" stroke-width="1" fill="none" fill-rule="evenodd">
        <rect id="Rectangle-3" fill-rule="nonzero" x="0" y="0" width="24" height="24"></rect>
        <path d="M10,4.25203497 L10,2 L14,2 L14,4.25203497 C14.734042,4.44096432 15.4273112,4.73145639 16.0639347,5.10763818 L17.6568542,3.51471863 L20.4852814,6.34314575 L18.8923618,7.9360653 C19.2685436,8.57268879 19.5590357,9.26595802 19.747965,10 L22,10 L22,14 L19.747965,14 C19.5590357,14.734042 19.2685436,15.4273112 18.8923618,16.0639347 L20.4852814,17.6568542 L17.6568542,20.4852814 L16.0639347,18.8923618 C15.4273112,19.2685436 14.734042,19.5590357 14,19.747965 L14,22 L10,22 L10,19.747965 C9.26595802,19.5590357 8.57268879,19.2685436 7.9360653,18.8923618 L6.34314575,20.4852814 L3.51471863,17.6568542 L5.10763818,16.0639347 C4.73145639,15.4273112 4.44096432,14.734042 4.25203497,14 L2,14 L2,10 L4.25203497,10 C4.44096432,9.26595802 4.73145639,8.57268879 5.10763818,7.93606531 L3.51471863,6.34314575 L6.34314575,3.51471863 L7.9360653,5.10763818 C8.57268879,4.73145639 9.26595802,4.44096432 10,4.25203497 Z M12,16 C14.209139,16 16,14.209139 16,12 C16,9.790861 14.209139,8 12,8 C9.790861,8 8,9.790861 8,12 C8,14.209139 9.790861,16 12,16 Z" id="Combined-Shape" fill="#FFFFFF" fill-rule="nonzero"></path>
    </g>
</svg>