<?xml version="1.0" encoding="UTF-8"?>
<svg width="24px" height="24px" viewBox="0 0 24 24" version="1.1" xmlns="http://www.w3.org/2000/svg" xmlns:xlink="http://www.w3.org/1999/xlink">
    <!-- Generator: Sketch 54 (76480) - https://sketchapp.com -->
    <title>icon_menu_commodity_selected</title>
    <desc>Created with Sketch.</desc>
    <g id="icon_menu_commodity_selected" stroke="none" stroke-width="1" fill="none" fill-rule="evenodd">
        <rect id="Rectangle-3" fill-rule="nonzero" x="0" y="0" width="24" height="24"></rect>
        <path d="M7.73312491,6.68010044 C7.89873832,6.50165786 8,6.2626544 8,6 C8,5.44771525 7.55228475,5 7,5 C6.44771525,5 6,5.44771525 6,6 C6,6.4754354 6.33178658,6.8733779 6.77645055,6.97491828 C7.63485479,9.30177011 9.4022444,10.5 12,10.5 C14.5977556,10.5 16.3651452,9.30177011 17.2235495,6.97491828 C17.6682134,6.8733779 18,6.4754354 18,6 C18,5.44771525 17.5522847,5 17,5 C16.4477153,5 16,5.44771525 16,6 C16,6.2626544 16.1012617,6.50165786 16.2668751,6.68010044 C15.5490309,8.58228611 14.1518726,9.5 12,9.5 C9.84812738,9.5 8.45096914,8.58228611 7.73312491,6.68010044 Z M4.90249844,2 L19.0975016,2 C20.1632499,2 21.0417853,2.83570608 21.0950062,3.90012477 L21.8950062,19.9001248 C21.9501658,21.0033161 21.1005682,21.9423451 19.9973768,21.9975047 C19.964111,21.999168 19.9308089,22 19.8975016,22 L4.10249844,22 C2.99792894,22 2.10249844,21.1045695 2.10249844,20 C2.10249844,19.9666927 2.10333047,19.9333905 2.10499376,19.9001248 L2.90499376,3.90012477 C2.9582147,2.83570608 3.83675006,2 4.90249844,2 Z M5.5,18 C5.22385763,18 5,18.2238576 5,18.5 C5,18.7761424 5.22385763,19 5.5,19 L18.5,19 C18.7761424,19 19,18.7761424 19,18.5 C19,18.2238576 18.7761424,18 18.5,18 L5.5,18 Z" id="合并形状" fill="#FFFFFF" fill-rule="nonzero"></path>
    </g>
</svg>