<?xml version="1.0" encoding="UTF-8"?>
<svg width="24px" height="24px" viewBox="0 0 24 24" version="1.1" xmlns="http://www.w3.org/2000/svg" xmlns:xlink="http://www.w3.org/1999/xlink">
    <!-- Generator: Sketch 54 (76480) - https://sketchapp.com -->
    <title>icon_menu_operation_normal</title>
    <desc>Created with Sketch.</desc>
    <g id="icon_menu_operation_normal" stroke="none" stroke-width="1" fill="none" fill-rule="evenodd">
        <rect id="Rectangle-3" fill-rule="nonzero" x="0" y="0" width="24" height="24"></rect>
        <path d="M10,20.7771488 L10,18.7098841 C7.74171939,18.0377513 5.96224874,16.2582806 5.29011587,14 L3.22285121,14 C3.98613302,17.3643128 6.63568716,20.013867 10,20.7771488 Z M6.08295844,13 C6.50447689,15.5125049 8.48749513,17.4955231 11,17.9170416 L11,21.9506248 C6.27558355,21.4815561 2.51844387,17.7244165 2.04937524,13 L6.08295844,13 Z M5.29011587,10 C5.96224874,7.74171939 7.74171939,5.96224874 10,5.29011587 L10,3.22285121 C6.63568716,3.98613302 3.98613302,6.63568716 3.22285121,10 L5.29011587,10 Z M11,2.04937524 L11,6.08295844 C8.48749513,6.50447689 6.50447689,8.48749513 6.08295844,11 L2.04937524,11 C2.51844387,6.27558355 6.27558355,2.51844387 11,2.04937524 Z M14,3.22285121 L14,5.29011587 C16.2582806,5.96224874 18.0377513,7.74171939 18.7098841,10 L20.7771488,10 C20.013867,6.63568716 17.3643128,3.98613302 14,3.22285121 Z M17.9170416,11 C17.4955231,8.48749513 15.5125049,6.50447689 13,6.08295844 L13,2.04937524 C17.7244165,2.51844387 21.4815561,6.27558355 21.9506248,11 L17.9170416,11 Z M20.7771488,14 L18.7098841,14 C18.0377513,16.2582806 16.2582806,18.0377513 14,18.7098841 L14,20.7771488 C17.3643128,20.013867 20.013867,17.3643128 20.7771488,14 Z M13,21.9506248 L13,17.9170416 C15.5125049,17.4955231 17.4955231,15.5125049 17.9170416,13 L21.9506248,13 C21.4815561,17.7244165 17.7244165,21.4815561 13,21.9506248 Z" id="Combined-Shape" fill="#99ABB4" fill-rule="nonzero"></path>
    </g>
</svg>