<?xml version="1.0" encoding="UTF-8"?>
<svg width="24px" height="24px" viewBox="0 0 24 24" version="1.1" xmlns="http://www.w3.org/2000/svg" xmlns:xlink="http://www.w3.org/1999/xlink">
    <!-- Generator: Sketch 54 (76480) - https://sketchapp.com -->
    <title>icon_menu_system_normal</title>
    <desc>Created with Sketch.</desc>
    <g id="icon_menu_system_normal" stroke="none" stroke-width="1" fill="none" fill-rule="evenodd">
        <rect id="Rectangle-3" fill-rule="nonzero" x="0" y="0" width="24" height="24"></rect>
        <path d="M13,5.07088886 L13,3 L11,3 L11,5.07088886 C9.81409323,5.24051953 8.72407262,5.70739194 7.80782891,6.39361534 L6.34314575,4.92893219 L4.92893219,6.34314575 L6.39361534,7.80782891 C5.70739194,8.72407262 5.24051953,9.81409323 5.07088886,11 L3,11 L3,13 L5.07088886,13 C5.24051953,14.1859068 5.70739194,15.2759274 6.39361534,16.1921711 L4.92893219,17.6568542 L6.34314575,19.0710678 L7.80782891,17.6063847 C8.72407262,18.2926081 9.81409323,18.7594805 11,18.9291111 L11,21 L13,21 L13,18.9291111 C14.1859068,18.7594805 15.2759274,18.2926081 16.1921711,17.6063847 L17.6568542,19.0710678 L19.0710678,17.6568542 L17.6063847,16.1921711 C18.2926081,15.2759274 18.7594805,14.1859068 18.9291111,13 L21,13 L21,11 L18.9291111,11 C18.7594805,9.81409323 18.2926081,8.72407262 17.6063847,7.80782891 L19.0710678,6.34314575 L17.6568542,4.92893219 L16.1921711,6.39361534 C15.2759274,5.70739194 14.1859068,5.24051953 13,5.07088886 Z M10,4.25203497 L10,2 L14,2 L14,4.25203497 C14.734042,4.44096432 15.4273112,4.73145639 16.0639347,5.10763818 L17.6568542,3.51471863 L20.4852814,6.34314575 L18.8923618,7.9360653 C19.2685436,8.57268879 19.5590357,9.26595802 19.747965,10 L22,10 L22,14 L19.747965,14 C19.5590357,14.734042 19.2685436,15.4273112 18.8923618,16.0639347 L20.4852814,17.6568542 L17.6568542,20.4852814 L16.0639347,18.8923618 C15.4273112,19.2685436 14.734042,19.5590357 14,19.747965 L14,22 L10,22 L10,19.747965 C9.26595802,19.5590357 8.57268879,19.2685436 7.9360653,18.8923618 L6.34314575,20.4852814 L3.51471863,17.6568542 L5.10763818,16.0639347 C4.73145639,15.4273112 4.44096432,14.734042 4.25203497,14 L2,14 L2,10 L4.25203497,10 C4.44096432,9.26595802 4.73145639,8.57268879 5.10763818,7.93606531 L3.51471863,6.34314575 L6.34314575,3.51471863 L7.9360653,5.10763818 C8.57268879,4.73145639 9.26595802,4.44096432 10,4.25203497 Z M12,16 C9.790861,16 8,14.209139 8,12 C8,9.790861 9.790861,8 12,8 C14.209139,8 16,9.790861 16,12 C16,14.209139 14.209139,16 12,16 Z M12,15 C13.6568542,15 15,13.6568542 15,12 C15,10.3431458 13.6568542,9 12,9 C10.3431458,9 9,10.3431458 9,12 C9,13.6568542 10.3431458,15 12,15 Z" id="Combined-Shape" fill="#99ABB4" fill-rule="nonzero"></path>
    </g>
</svg>