<?xml version="1.0" encoding="UTF-8"?>
<svg width="24px" height="24px" viewBox="0 0 24 24" version="1.1" xmlns="http://www.w3.org/2000/svg" xmlns:xlink="http://www.w3.org/1999/xlink">
    <!-- Generator: Sketch 54 (76480) - https://sketchapp.com -->
    <title>icon_menu_overview_normal</title>
    <desc>Created with Sketch.</desc>
    <g id="icon_menu_overview_normal" stroke="none" stroke-width="1" fill="none" fill-rule="evenodd">
        <rect id="Rectangle-3" fill-rule="nonzero" x="0" y="0" width="24" height="24"></rect>
        <path d="M4,3 C3.44771525,3 3,3.44771525 3,4 L3,16 C3,16.5522847 3.44771525,17 4,17 L20,17 C20.5522847,17 21,16.5522847 21,16 L21,4 C21,3.44771525 20.5522847,3 20,3 L4,3 Z M4,2 L20,2 C21.1045695,2 22,2.8954305 22,4 L22,16 C22,17.1045695 21.1045695,18 20,18 L4,18 C2.8954305,18 2,17.1045695 2,16 L2,4 C2,2.8954305 2.8954305,2 4,2 Z M4.5,21 L19.5,21 C19.7761424,21 20,21.2238576 20,21.5 C20,21.7761424 19.7761424,22 19.5,22 L4.5,22 C4.22385763,22 4,21.7761424 4,21.5 C4,21.2238576 4.22385763,21 4.5,21 Z M7.35355339,12.3535534 C7.15829124,12.5488155 6.84170876,12.5488155 6.64644661,12.3535534 C6.45118446,12.1582912 6.45118446,11.8417088 6.64644661,11.6464466 L10.6464466,7.64644661 C10.8616013,7.43129192 11.2174352,7.45658026 11.4,7.7 L14.0540971,11.2387961 L17.6464466,7.64644661 C17.8417088,7.45118446 18.1582912,7.45118446 18.3535534,7.64644661 C18.5488155,7.84170876 18.5488155,8.15829124 18.3535534,8.35355339 L14.3535534,12.3535534 C14.1383987,12.5687081 13.7825648,12.5434197 13.6,12.3 L10.9459029,8.76120387 L7.35355339,12.3535534 Z" id="合并形状" fill="#99ABB4" fill-rule="nonzero"></path>
    </g>
</svg>