<?xml version="1.0" encoding="UTF-8"?>
<svg width="24px" height="24px" viewBox="0 0 24 24" version="1.1" xmlns="http://www.w3.org/2000/svg" xmlns:xlink="http://www.w3.org/1999/xlink">
    <!-- Generator: Sketch 54 (76480) - https://sketchapp.com -->
    <title>icon_menu_news_selected</title>
    <desc>Created with Sketch.</desc>
    <g id="icon_menu_news_selected" stroke="none" stroke-width="1" fill="none" fill-rule="evenodd">
        <rect id="Rectangle-3" fill-rule="nonzero" x="0" y="0" width="24" height="24"></rect>
        <g id="消息-(4)" transform="translate(1.500000, 2.500000)" fill="#FFFFFF" fill-rule="nonzero">
            <path d="M10.4950961,18.9952269 C10.0237122,18.9958711 9.57138124,18.8084047 9.23761585,18.4740702 L6.61945065,15.8195625 L2.92500791,15.8195625 C1.33413372,15.8195625 0.0405080429,14.5799643 0.0405079866,13.0566199 L0.0405079866,2.76723809 C0.0405079866,1.2438937 1.33460928,0.00429547024 2.92500791,0.00429547024 L18.0818302,0.00429547024 C19.6727044,0.00429547024 20.9663301,1.2438937 20.9663301,2.76723809 L20.9663301,13.0566199 C20.9663301,14.5799643 19.6722288,15.8195625 18.0818302,15.8195625 L14.2984507,15.8195625 L11.7692223,18.4568734 C11.4372667,18.7986222 10.9828141,18.9925228 10.5074616,18.9952269 L10.4950961,18.9952269 Z M4.16441547,8.02896232 C4.16441545,8.46175911 4.39429979,8.86167985 4.7674733,9.07807826 C5.1406468,9.29447666 5.60041552,9.29447666 5.97358903,9.07807826 C6.34676253,8.86167985 6.57664688,8.46175911 6.57664685,8.02896232 C6.57664688,7.59616553 6.34676253,7.19624479 5.97358903,6.97984639 C5.60041552,6.76344798 5.1406468,6.76344798 4.7674733,6.97984639 C4.39429979,7.19624479 4.16441545,7.59616553 4.16441547,8.02896232 Z M9.27281005,8.02896232 C9.27281005,8.69800818 9.81280645,9.24037702 10.4789258,9.24037702 C11.1450451,9.24037702 11.6850415,8.69800818 11.6850415,8.02896232 C11.6850415,7.35991646 11.1450451,6.81754763 10.4789258,6.81754763 C9.81280645,6.81754763 9.27281005,7.35991646 9.27281005,8.02896232 Z M14.3812047,8.02896232 C14.3812047,8.69800818 14.9212011,9.24037702 15.5873204,9.24037702 C16.2534397,9.24037702 16.7934361,8.69800818 16.7934361,8.02896232 C16.7934361,7.35991646 16.2534397,6.81754763 15.5873204,6.81754763 C14.9212011,6.81754763 14.3812047,7.35991646 14.3812047,8.02896232 Z" id="形状结合"></path>
        </g>
    </g>
</svg>