<?xml version="1.0" encoding="UTF-8"?>
<svg width="24px" height="24px" viewBox="0 0 24 24" version="1.1" xmlns="http://www.w3.org/2000/svg" xmlns:xlink="http://www.w3.org/1999/xlink">
    <!-- Generator: Sketch 54 (76480) - https://sketchapp.com -->
    <title>icon_menu_overview_selected</title>
    <desc>Created with Sketch.</desc>
    <g id="icon_menu_overview_selected" stroke="none" stroke-width="1" fill="none" fill-rule="evenodd">
        <rect id="Rectangle-3" fill-rule="nonzero" x="0" y="0" width="24" height="24"></rect>
        <path d="M4,2 L20,2 C21.1045695,2 22,2.8954305 22,4 L22,16 C22,17.1045695 21.1045695,18 20,18 L4,18 C2.8954305,18 2,17.1045695 2,16 L2,4 C2,2.8954305 2.8954305,2 4,2 Z M7.35355339,12.3535534 L10.9459029,8.76120387 L13.6,12.3 C13.7825648,12.5434197 14.1383987,12.5687081 14.3535534,12.3535534 L18.3535534,8.35355339 C18.5488155,8.15829124 18.5488155,7.84170876 18.3535534,7.64644661 C18.1582912,7.45118446 17.8417088,7.45118446 17.6464466,7.64644661 L14.0540971,11.2387961 L11.4,7.7 C11.2174352,7.45658026 10.8616013,7.43129192 10.6464466,7.64644661 L6.64644661,11.6464466 C6.45118446,11.8417088 6.45118446,12.1582912 6.64644661,12.3535534 C6.84170876,12.5488155 7.15829124,12.5488155 7.35355339,12.3535534 Z M4.5,21 L19.5,21 C19.7761424,21 20,21.2238576 20,21.5 C20,21.7761424 19.7761424,22 19.5,22 L4.5,22 C4.22385763,22 4,21.7761424 4,21.5 C4,21.2238576 4.22385763,21 4.5,21 Z" id="合并形状" fill="#FFFFFF" fill-rule="nonzero"></path>
    </g>
</svg>