<?xml version="1.0" encoding="UTF-8"?>
<svg width="24px" height="24px" viewBox="0 0 24 24" version="1.1" xmlns="http://www.w3.org/2000/svg" xmlns:xlink="http://www.w3.org/1999/xlink">
    <!-- Generator: Sketch 54 (76480) - https://sketchapp.com -->
    <title>icon_menu_news_normal</title>
    <desc>Created with Sketch.</desc>
    <g id="icon_menu_news_normal" stroke="none" stroke-width="1" fill="none" fill-rule="evenodd">
        <rect id="Rectangle-3" fill-rule="nonzero" x="0" y="0" width="24" height="24"></rect>
        <g id="消息-(4)" transform="translate(1.500000, 2.500000)" fill="#99ABB4" fill-rule="nonzero">
            <path d="M4.16441547,8.02896232 C4.16441545,8.46175911 4.39429979,8.86167985 4.7674733,9.07807826 C5.1406468,9.29447666 5.60041552,9.29447666 5.97358903,9.07807826 C6.34676253,8.86167985 6.57664688,8.46175911 6.57664685,8.02896232 C6.57664688,7.59616553 6.34676253,7.19624479 5.97358903,6.97984639 C5.60041552,6.76344798 5.1406468,6.76344798 4.7674733,6.97984639 C4.39429979,7.19624479 4.16441545,7.59616553 4.16441547,8.02896232 Z" id="路径"></path>
            <path d="M9.27281005,8.02896232 C9.27281005,8.69800818 9.81280645,9.24037702 10.4789258,9.24037702 C11.1450451,9.24037702 11.6850415,8.69800818 11.6850415,8.02896232 C11.6850415,7.35991646 11.1450451,6.81754763 10.4789258,6.81754763 C9.81280645,6.81754763 9.27281005,7.35991646 9.27281005,8.02896232 L9.27281005,8.02896232 Z" id="路径"></path>
            <path d="M14.3812047,8.02896232 C14.3812047,8.69800818 14.9212011,9.24037702 15.5873204,9.24037702 C16.2534397,9.24037702 16.7934361,8.69800818 16.7934361,8.02896232 C16.7934361,7.35991646 16.2534397,6.81754763 15.5873204,6.81754763 C14.9212011,6.81754763 14.3812047,7.35991646 14.3812047,8.02896232 L14.3812047,8.02896232 Z" id="路径"></path>
            <path d="M17.96,15.8195625 L14.2984507,15.8195625 L11.7692223,18.4568734 C11.4372667,18.7986222 10.9828141,18.9925228 10.5074616,18.9952269 L10.4950961,18.9952269 C10.0237122,18.9958711 9.57138124,18.8084047 9.23761585,18.4740702 L6.61945065,15.8195625 L3.04050799,15.8195625 L3.04050799,15.83 L2.54050799,15.83 C1.15979611,15.83 0.0405079866,14.7107119 0.0405079866,13.33 L0.0405079866,12.9433099 L0.0405079866,2.88361905 L0.0405079866,2 C0.0405079866,0.8954305 0.935938487,3.72041664e-16 2.04050799,1.69135539e-16 L3.04050799,1.69135539e-16 L3.04050799,0.00429547024 L17.96,0.00429547024 L17.96,1.69135539e-16 L18.96,1.69135539e-16 C20.0645695,3.72041664e-16 20.96,0.8954305 20.96,2 L20.96,2.58316659 C20.9641978,2.64401342 20.9663301,2.70539191 20.9663301,2.76723809 L20.9663301,13.0566199 C20.9663301,13.118455 20.9641978,13.1798226 20.96,13.2406587 L20.96,13.32 C20.96,14.7007119 19.8407119,15.82 18.46,15.82 L17.96,15.82 Z M1.04,2.01205689 L1.04,13.4795503 C1.04,14.0284355 1.5624231,14.4916072 2.1804496,14.4916072 L6.66179472,14.4916072 C6.93240878,14.4915419 7.19180988,14.6017658 7.38221614,14.7977264 L9.76768106,17.2519189 C10.1526207,17.6479491 10.7857219,17.6569397 11.181752,17.272 C11.1918672,17.2621681 11.2017732,17.2521233 11.2114634,17.2418723 L13.5123284,14.8078417 C13.7034799,14.6056514 13.9671677,14.4914767 14.2426759,14.4916072 L18.8295505,14.4916072 C19.447577,14.4916072 19.97,14.0279031 19.97,13.4795503 L19.97,2.01205689 C19.97,1.46317174 19.4475769,1 18.8295505,1 L2.1804496,1 C1.5624231,1 1.04000006,1.46370409 1.04,2.01205689 Z" id="形状"></path>
        </g>
    </g>
</svg>