<?xml version="1.0" encoding="UTF-8"?>
<svg width="24px" height="24px" viewBox="0 0 24 24" version="1.1" xmlns="http://www.w3.org/2000/svg" xmlns:xlink="http://www.w3.org/1999/xlink">
    <!-- Generator: Sketch 54 (76480) - https://sketchapp.com -->
    <title>icon_menu_marketing_normal</title>
    <desc>Created with Sketch.</desc>
    <g id="icon_menu_marketing_normal" stroke="none" stroke-width="1" fill="none" fill-rule="evenodd">
        <rect id="Rectangle-3" fill-rule="nonzero" x="0" y="0" width="24" height="24"></rect>
        <path d="M10.5,10.5 L10.5,6.5 C10.5,4.290861 8.709139,2.5 6.5,2.5 C4.290861,2.5 2.5,4.290861 2.5,6.5 C2.5,8.709139 4.290861,10.5 6.5,10.5 L10.5,10.5 Z M6.5,11.5 C3.73857625,11.5 1.5,9.26142375 1.5,6.5 C1.5,3.73857625 3.73857625,1.5 6.5,1.5 C9.26142375,1.5 11.5,3.73857625 11.5,6.5 L11.5,11.5 L6.5,11.5 Z M17.5,10.5 C19.709139,10.5 21.5,8.709139 21.5,6.5 C21.5,4.290861 19.709139,2.5 17.5,2.5 C15.290861,2.5 13.5,4.290861 13.5,6.5 L13.5,10.5 L17.5,10.5 Z M17.5,11.5 L12.5,11.5 L12.5,6.5 C12.5,3.73857625 14.7385763,1.5 17.5,1.5 C20.2614237,1.5 22.5,3.73857625 22.5,6.5 C22.5,9.26142375 20.2614237,11.5 17.5,11.5 Z M10.5,13.5 L6.5,13.5 C4.290861,13.5 2.5,15.290861 2.5,17.5 C2.5,19.709139 4.290861,21.5 6.5,21.5 C8.709139,21.5 10.5,19.709139 10.5,17.5 L10.5,13.5 Z M6.5,12.5 L11.5,12.5 L11.5,17.5 C11.5,20.2614237 9.26142375,22.5 6.5,22.5 C3.73857625,22.5 1.5,20.2614237 1.5,17.5 C1.5,14.7385763 3.73857625,12.5 6.5,12.5 Z M13.5,17.5 C13.5,19.709139 15.290861,21.5 17.5,21.5 C19.709139,21.5 21.5,19.709139 21.5,17.5 C21.5,15.290861 19.709139,13.5 17.5,13.5 L13.5,13.5 L13.5,17.5 Z M17.5,12.5 C20.2614237,12.5 22.5,14.7385763 22.5,17.5 C22.5,20.2614237 20.2614237,22.5 17.5,22.5 C14.7385763,22.5 12.5,20.2614237 12.5,17.5 L12.5,12.5 L17.5,12.5 Z" id="Combined-Shape" fill="#99ABB4" fill-rule="nonzero"></path>
    </g>
</svg>