<?xml version="1.0" encoding="UTF-8"?>
<svg width="24px" height="24px" viewBox="0 0 24 24" version="1.1" xmlns="http://www.w3.org/2000/svg" xmlns:xlink="http://www.w3.org/1999/xlink">
    <!-- Generator: Sketch 54 (76480) - https://sketchapp.com -->
    <title>icon_menu_logistics_selected</title>
    <desc>Created with Sketch.</desc>
    <g id="icon_menu_logistics_selected" stroke="none" stroke-width="1" fill="none" fill-rule="evenodd">
        <rect id="Rectangle-3" fill-rule="nonzero" x="0" y="0" width="24" height="24"></rect>
        <path d="M13,18.0000256 L11,18.0000255 C11,16.3431458 9.65685425,15 8,15 C6.34314575,15 5,16.3431458 5,18 L4,18.0000252 C2.8954305,18.0000252 2,17.1045947 2,16.0000252 C2,14.3333502 2,12.6666751 2,11 C2,9 4,7 6,7 C7.33333333,7 8.33333333,7 9,7 L9,5 C9,3.8954305 9.8954305,3 11,3 L20,3.00000058 C21.1045693,3.00000058 21.9999997,3.89543073 22,5 L22.0000043,16.0000252 C22.0000046,17.1045947 21.1045744,18.0000255 20.0000049,18.0000258 L19,18.0000258 C19,16.3431458 17.6568542,15 16,15 C14.3431458,15 13,16.3431458 13,18 Z M8,20 C6.8954305,20 6,19.1045695 6,18 C6,16.8954305 6.8954305,16 8,16 C9.1045695,16 10,16.8954305 10,18 C10,19.1045695 9.1045695,20 8,20 Z M16,20 C14.8954305,20 14,19.1045695 14,18 C14,16.8954305 14.8954305,16 16,16 C17.1045695,16 18,16.8954305 18,18 C18,19.1045695 17.1045695,20 16,20 Z M9.5,9 C9.22385763,9 9,9.22385763 9,9.5 L9,11 L6.5,11 C6.22385763,11 6,11.2238576 6,11.5 C6,11.7761424 6.22385763,12 6.5,12 L10,12 L10,9.5 C10,9.22385763 9.77614237,9 9.5,9 Z" id="Combined-Shape" fill="#FFFFFF" fill-rule="nonzero"></path>
    </g>
</svg>