<?xml version="1.0" encoding="UTF-8"?>
<svg width="24px" height="24px" viewBox="0 0 24 24" version="1.1" xmlns="http://www.w3.org/2000/svg" xmlns:xlink="http://www.w3.org/1999/xlink">
    <!-- Generator: Sketch 54 (76480) - https://sketchapp.com -->
    <title>icon_menu_promotion_normal</title>
    <desc>Created with Sketch.</desc>
    <g id="icon_menu_promotion_normal" stroke="none" stroke-width="1" fill="none" fill-rule="evenodd">
        <rect id="Rectangle-3" fill-rule="nonzero" x="0" y="0" width="24" height="24"></rect>
        <g id="促销" transform="translate(2.000000, 2.000000)" fill="#99ABB4">
            <path d="M8.71613977,19.9756306 C6.86893615,19.9756306 5.74306799,18.3964908 5.10702559,17.4217132 C2.53604959,17.124406 0.944725117,15.6744243 0.93985123,13.5981479 C0.949599004,13.1619349 1.02027039,12.7281589 1.14699146,12.3114414 C1.20304117,12.1018643 1.25421701,11.8995979 1.29077117,11.6827099 C1.16405008,11.4487632 1.02270732,11.2270013 0.864305957,11.0125503 C0.571872676,10.6372609 0.340362988,10.2205434 0.177087734,9.77458268 C-0.597860488,7.30108443 1.48328977,5.80967467 2.56285598,5.10783477 C2.8016765,2.56853904 4.34426209,0.94066041 6.53263787,0.94066041 C6.86893615,0.943097363 7.2027975,0.97721457 7.53178494,1.045449 C7.66094297,1.07469232 7.78766406,1.11368344 7.91194822,1.15998537 C8.0435432,1.21359814 8.18001207,1.24771535 8.31891787,1.26721092 C8.64303143,1.15267455 8.9452125,0.982088457 9.21327635,0.76520043 C9.52033131,0.526379902 9.85906652,0.331424395 10.2197343,0.185207754 C10.5682172,0.0731083203 10.9337589,0.0146216602 11.2993005,0.0121847266 C13.0977652,0.0121847266 14.2285072,1.51577922 14.9279102,2.52223711 C17.4355256,2.79030096 19.0658412,4.2743999 19.1023954,6.34336541 C19.0975215,6.81369563 19.0244132,7.28158889 18.8903813,7.73486049 C18.8367685,7.94443768 18.7855927,8.14670404 18.7490385,8.35628123 C18.8757596,8.59753869 19.0171023,8.83392227 19.1706298,9.06055807 C19.55323,9.6429877 19.948015,10.2473498 19.9748214,11.2026319 C20.0284341,13.1131961 18.7758449,14.0026806 17.6719092,14.7849397 C17.6061117,14.8336786 17.5403142,14.8799805 17.4745168,14.9262824 C17.1869574,17.4338979 15.7515973,19.0106007 13.6996904,19.0520287 L13.6241451,19.0544657 C13.1781844,19.042281 12.7370975,18.9716096 12.3106323,18.8448885 C12.0986181,18.7912757 11.8963518,18.737663 11.6843376,18.7011088 C11.4382063,18.8327038 11.2018227,18.9837943 10.9800608,19.1519435 C10.6169561,19.4419398 10.2075495,19.6661387 9.76889959,19.8196661 C9.42772742,19.9195808 9.07193359,19.9731936 8.71613977,19.9756306 Z M6.2679957,2.00995531 C4.10248385,2.00995531 3.78130681,4.3553493 3.73507678,5.0730788 C3.70831203,5.49155158 3.4820282,5.87352966 3.12922009,6.09979691 C1.30921687,7.26762795 0.759322835,8.1191714 1.1096978,9.23347685 C1.23622209,9.53273355 1.40167692,9.81252641 1.60362916,10.0679894 C1.87857618,10.4305037 2.11215947,10.8197807 2.3019459,11.2333875 C2.39683912,11.4572218 2.42603703,11.7005199 2.39197278,11.9389521 C2.33844327,12.2722705 2.26788166,12.605589 2.17785476,12.9316085 C2.07809523,13.2381641 2.02213257,13.5520187 2.00753362,13.8707392 C2.01239993,15.7052072 3.94919481,16.1528757 5.10251235,16.2599269 C5.50641681,16.2939887 5.87382388,16.5153899 6.09280823,16.8560073 C6.75949391,17.8851584 7.56000334,18.98 8.61599451,18.98 C8.83011254,18.977567 9.04179741,18.9435053 9.2461828,18.8802478 C9.53086245,18.7683306 9.79364367,18.6126198 10.0296601,18.4179813 C10.3995004,18.1381885 10.7961053,17.8973233 11.2170419,17.7026848 C11.3849299,17.6272624 11.5674168,17.5883347 11.7499038,17.5907677 C11.8155991,17.5907677 11.8812944,17.5956336 11.9445566,17.6053656 C12.2754662,17.6564582 12.6039427,17.7270146 12.9251198,17.8146019 C13.2438637,17.9119212 13.5723402,17.9678798 13.9032499,17.9849106 L13.9470467,17.9824777 C15.7670499,17.9459829 16.2123181,16.0604224 16.3145108,14.941251 C16.3485751,14.5617059 16.545661,14.2162226 16.852239,13.9923883 C16.9811965,13.897502 17.1101539,13.8074817 17.2391114,13.7150284 C18.4970548,12.8196913 19.0080183,12.3598578 18.9788204,11.3453046 C18.9642214,10.8124817 18.7525365,10.4888952 18.4045947,9.95363932 C18.1612788,9.60085702 17.9471608,9.22861088 17.7622407,8.84176686 C17.6551816,8.60820065 17.6211174,8.35030464 17.6576148,8.09727458 C17.7111443,7.77368807 17.7792728,7.45010155 17.8644333,7.13381397 C17.9690592,6.79562956 18.027455,6.44771324 18.0396208,6.09493095 C18.0128561,4.4988952 16.4313025,3.80549553 14.959241,3.68627945 C14.5626361,3.65465069 14.2025285,3.44784727 13.9762447,3.12182779 C13.2049331,2.00752234 12.4287553,1.01 11.401962,1.01 C11.1854108,1.01243299 10.973726,1.04649472 10.7669074,1.1146182 C10.5649552,1.22896831 10.3703024,1.35548334 10.1829492,1.4917303 C9.60142406,1.89560519 9.02233212,2.29948009 8.35807962,2.35543867 C8.30211696,2.36273763 8.24615428,2.3651706 8.19019162,2.3651706 C7.83981667,2.35300568 7.49187487,2.28001625 7.16583151,2.14863526 C7.10256937,2.12673842 7.02957459,2.09754265 6.98821088,2.08781073 C6.75219442,2.03671813 6.50887848,2.0123883 6.2679957,2.00995531 L6.2679957,2.00995531 Z" id="形状" fill-rule="nonzero"></path>
            <path d="M6.04122811,7.15159746 C6.04122811,6.22856049 6.79166468,5.48 7.71470165,5.48 C8.63773861,5.48 9.38629911,6.22856048 9.38629911,7.15347354 C9.38442301,8.07651052 8.63586253,8.8231949 7.71282556,8.825071 C6.78978858,8.825071 6.04122811,8.07463442 6.04122811,7.15159746 Z M8.38629911,7.15347354 C8.38629911,6.78096198 8.08557024,6.48 7.71470165,6.48 C7.34324517,6.48 7.04122811,6.78154955 7.04122811,7.15159746 C7.04122811,7.52271379 7.34222562,7.82451781 7.71180914,7.82507024 C8.08438687,7.8237675 8.3855465,7.52273968 8.38629911,7.15347354 Z" id="路径" fill-rule="nonzero"></path>
            <path d="M12.2715975,14.495071 C11.3485605,14.495071 10.6,13.7446344 10.6,12.8215975 C10.6,11.8985605 11.3504366,11.15 12.2734735,11.15 C13.1965105,11.15 13.945071,11.8985605 13.945071,12.8234735 C13.9431949,13.7465105 13.1946344,14.4931949 12.2715975,14.495071 Z M12.945071,12.8234735 C12.945071,12.450962 12.6443421,12.15 12.2734735,12.15 C11.9020171,12.15 11.6,12.4515495 11.6,12.8215975 C11.6,13.1927138 11.9009975,13.4945178 12.270581,13.4950702 C12.6431588,13.4937675 12.9443184,13.1927397 12.945071,12.8234735 Z" id="路径" fill-rule="nonzero"></path>
            <rect id="矩形" transform="translate(9.993351, 9.993351) scale(-1, 1) rotate(45.000000) translate(-9.993351, -9.993351) " x="4.49335137" y="9.39335137" width="11" height="1.2" rx="0.6"></rect>
        </g>
    </g>
</svg>