<?xml version="1.0" encoding="UTF-8"?>
<svg width="14px" height="14px" viewBox="0 0 14 14" version="1.1" xmlns="http://www.w3.org/2000/svg" xmlns:xlink="http://www.w3.org/1999/xlink">
    <!-- Generator: Sketch 53.2 (72643) - https://sketchapp.com -->
    <title>icon_goodsreceived  </title>
    <desc>Created with Sketch.</desc>
    <g id="icon_goodsreceived--" stroke="none" stroke-width="1" fill="none" fill-rule="evenodd">
        <path d="M6.18566017,9.66789322 L9.47487373,6.37867966 C9.67013588,6.18341751 9.98671837,6.18341751 10.1819805,6.37867966 C10.3772427,6.5739418 10.3772427,6.89052429 10.1819805,7.08578644 L6.64644661,10.6213203 C6.57002318,10.6977438 6.47501525,10.7442559 6.37597037,10.7608568 C6.18584951,10.8661469 5.94167358,10.8381202 5.78033009,10.6767767 L4.01256313,8.90900974 C3.81730099,8.7137476 3.81730099,8.39716511 4.01256313,8.20190296 C4.20782528,8.00664082 4.52440777,8.00664082 4.71966991,8.20190296 L6.18566017,9.66789322 Z M1.03395615,5.18116162 C0.981315228,5.0454987 0.988055643,4.88812041 1.06587843,4.75193053 L2.77795782,1.75579159 C3.04502211,1.2884291 3.54203726,1 4.08032254,1 L9.91967746,1 C10.4579627,1 10.9549779,1.2884291 11.2220422,1.75579159 L12.9341216,4.75193053 C13.0119444,4.88812041 13.0186848,5.0454987 12.9660439,5.18116162 C12.988286,5.28391465 13,5.39058935 13,5.5 L13,11.5 C13,12.3284271 12.3284271,13 11.5,13 L2.5,13 C1.67157288,13 1,12.3284271 1,11.5 L1,5.5 C1,5.39058935 1.01171396,5.28391465 1.03395615,5.18116162 Z M2.64730412,4 L11.3526959,4 L10.353799,2.25193053 C10.2647776,2.09614303 10.0991059,2 9.91967746,2 L4.08032254,2 C3.90089411,2 3.73522239,2.09614303 3.64620096,2.25193053 L2.64730412,4 Z M2,11.5 C2,11.7761424 2.22385763,12 2.5,12 L11.5,12 C11.7761424,12 12,11.7761424 12,11.5 L12,5.5 C12,5.22385763 11.7761424,5 11.5,5 L2.5,5 C2.22385763,5 2,5.22385763 2,5.5 L2,11.5 Z" id="合并形状" fill="#FFFFFF" fill-rule="nonzero"></path>
    </g>
</svg>