<?xml version="1.0" encoding="UTF-8"?>
<svg width="14px" height="14px" viewBox="0 0 14 14" version="1.1" xmlns="http://www.w3.org/2000/svg" xmlns:xlink="http://www.w3.org/1999/xlink">
    <!-- Generator: Sketch 53.2 (72643) - https://sketchapp.com -->
    <title>icon_cancel</title>
    <desc>Created with Sketch.</desc>
    <g id="icon_cancel" stroke="none" stroke-width="1" fill="none" fill-rule="evenodd">
        <path d="M7,6.29289322 L8.41421356,4.87867966 C8.60947571,4.68341751 8.9260582,4.68341751 9.12132034,4.87867966 C9.31658249,5.0739418 9.31658249,5.39052429 9.12132034,5.58578644 L7.70710678,7 L9.12132034,8.41421356 C9.31658249,8.60947571 9.31658249,8.9260582 9.12132034,9.12132034 C8.9260582,9.31658249 8.60947571,9.31658249 8.41421356,9.12132034 L7,7.70710678 L5.58578644,9.12132034 C5.39052429,9.31658249 5.0739418,9.31658249 4.87867966,9.12132034 C4.68341751,8.9260582 4.68341751,8.60947571 4.87867966,8.41421356 L6.29289322,7 L4.87867966,5.58578644 C4.68341751,5.39052429 4.68341751,5.0739418 4.87867966,4.87867966 C5.0739418,4.68341751 5.39052429,4.68341751 5.58578644,4.87867966 L7,6.29289322 Z M7,13.5 C3.41014913,13.5 0.5,10.5898509 0.5,7 C0.5,3.41014913 3.41014913,0.5 7,0.5 C10.5898509,0.5 13.5,3.41014913 13.5,7 C13.5,10.5898509 10.5898509,13.5 7,13.5 Z M7,12.5 C10.0375661,12.5 12.5,10.0375661 12.5,7 C12.5,3.96243388 10.0375661,1.5 7,1.5 C3.96243388,1.5 1.5,3.96243388 1.5,7 C1.5,10.0375661 3.96243388,12.5 7,12.5 Z" id="合并形状" fill="#FFFFFF"></path>
    </g>
</svg>