<?xml version="1.0" encoding="UTF-8"?>
<svg width="14px" height="14px" viewBox="0 0 14 14" version="1.1" xmlns="http://www.w3.org/2000/svg" xmlns:xlink="http://www.w3.org/1999/xlink">
    <!-- Generator: Sketch 54 (76480) - https://sketchapp.com -->
    <title>1-创建订单</title>
    <desc>Created with Sketch.</desc>
    <g id="1-创建订单" stroke="none" stroke-width="1" fill="none" fill-rule="evenodd">
        <g>
            <rect id="矩形" opacity="0.200000003" x="0" y="0" width="14" height="14"></rect>
            <path d="M10,10 L10,8.5 C10,8.22385763 10.2238576,8 10.5,8 C10.7761424,8 11,8.22385763 11,8.5 L11,10 L12.5,10 C12.7761424,10 13,10.2238576 13,10.5 C13,10.7761424 12.7761424,11 12.5,11 L11,11 L11,12.5 C11,12.7761424 10.7761424,13 10.5,13 C10.2238576,13 10,12.7761424 10,12.5 L10,11 L8.5,11 C8.22385763,11 8,10.7761424 8,10.5 C8,10.2238576 8.22385763,10 8.5,10 L10,10 Z M11,3 C10.7238576,3 10.5,2.77614237 10.5,2.5 C10.5,2.22385763 10.7238576,2 11,2 L11.5,2 C12.3284271,2 13,2.67157288 13,3.5 L13,8 C13,8.27614237 12.7761424,8.5 12.5,8.5 C12.2238576,8.5 12,8.27614237 12,8 L12,3.5 C12,3.22385763 11.7761424,3 11.5,3 L11,3 Z M8,12 C8.27614237,12 8.5,12.2238576 8.5,12.5 C8.5,12.7761424 8.27614237,13 8,13 L2.5,13 C1.67157288,13 1,12.3284271 1,11.5 L1,3.5 C1,2.67157288 1.67157288,2 2.5,2 L3,2 C3.27614237,2 3.5,2.22385763 3.5,2.5 C3.5,2.77614237 3.27614237,3 3,3 L2.5,3 C2.22385763,3 2,3.22385763 2,3.5 L2,11.5 C2,11.7761424 2.22385763,12 2.5,12 L8,12 Z M3.5,6 L10.5,6 C10.7761424,6 11,6.22385763 11,6.5 C11,6.77614237 10.7761424,7 10.5,7 L3.5,7 C3.22385763,7 3,6.77614237 3,6.5 C3,6.22385763 3.22385763,6 3.5,6 Z M3.5,8 L7.5,8 C7.77614237,8 8,8.22385763 8,8.5 C8,8.77614237 7.77614237,9 7.5,9 L3.5,9 C3.22385763,9 3,8.77614237 3,8.5 C3,8.22385763 3.22385763,8 3.5,8 Z M5.5,1 L8.5,1 C9.32842712,1 10,1.67157288 10,2.5 C10,3.32842712 9.32842712,4 8.5,4 L5.5,4 C4.67157288,4 4,3.32842712 4,2.5 C4,1.67157288 4.67157288,1 5.5,1 Z M5.5,2 C5.22385763,2 5,2.22385763 5,2.5 C5,2.77614237 5.22385763,3 5.5,3 L8.5,3 C8.77614237,3 9,2.77614237 9,2.5 C9,2.22385763 8.77614237,2 8.5,2 L5.5,2 Z" id="形状结合" fill="#FFFFFF" fill-rule="nonzero"></path>
        </g>
    </g>
</svg>