<?xml version="1.0" encoding="UTF-8"?>
<svg width="14px" height="14px" viewBox="0 0 14 14" version="1.1" xmlns="http://www.w3.org/2000/svg" xmlns:xlink="http://www.w3.org/1999/xlink">
    <!-- Generator: Sketch 53.2 (72643) - https://sketchapp.com -->
    <title>icon_delivery</title>
    <desc>Created with Sketch.</desc>
    <g id="icon_delivery" stroke="none" stroke-width="1" fill="none" fill-rule="evenodd">
        <path d="M7.56203208,11.4961898 C7.54170758,11.4987048 7.52100505,11.5 7.5,11.5 L6.5,11.5 C6.47899495,11.5 6.45829242,11.4987048 6.43796792,11.4961898 C6.21727452,12.360736 5.43329131,13 4.5,13 C3.56808029,13 2.78503014,12.3626136 2.56300874,11.5 L2.07142857,11.5 C1.21096708,11.5 0.5,10.8364307 0.5,10 L0.5,2.5 C0.5,1.66356927 1.21096708,1 2.07142857,1 L7.42857143,1 C8.28903292,1 9,1.66356927 9,2.5 L9,4 L10,4 C11.9423315,4 13.5,5.68747423 13.5,7.75 L13.5,9.91666667 C13.5,10.7825755 12.837762,11.5 12,11.5 L11.4369913,11.5 C11.2149699,12.3626136 10.4319197,13 9.5,13 C8.56670869,13 7.78272548,12.360736 7.56203208,11.4961898 Z M7.56203208,10.5038102 C7.78272548,9.63926398 8.56670869,9 9.5,9 C10.4319197,9 11.2149699,9.63738639 11.4369913,10.5 L12,10.5 C12.2668075,10.5 12.5,10.2473748 12.5,9.91666667 L12.5,7.75 C12.5,6.2226749 11.371377,5 10,5 L8.5,5 C8.22385763,5 8,4.77614237 8,4.5 L8,2.5 C8,2.23186123 7.75157725,2 7.42857143,2 L2.07142857,2 C1.74842275,2 1.5,2.23186123 1.5,2.5 L1.5,10 C1.5,10.2681388 1.74842275,10.5 2.07142857,10.5 L2.56300874,10.5 C2.78503014,9.63738639 3.56808029,9 4.5,9 C5.43329131,9 6.21727452,9.63926398 6.43796792,10.5038102 C6.45829242,10.5012952 6.47899495,10.5 6.5,10.5 L7.5,10.5 C7.52100505,10.5 7.54170758,10.5012952 7.56203208,10.5038102 Z M4.5,12 C5.05228475,12 5.5,11.5522847 5.5,11 C5.5,10.4477153 5.05228475,10 4.5,10 C3.94771525,10 3.5,10.4477153 3.5,11 C3.5,11.5522847 3.94771525,12 4.5,12 Z M9.5,12 C10.0522847,12 10.5,11.5522847 10.5,11 C10.5,10.4477153 10.0522847,10 9.5,10 C8.94771525,10 8.5,10.4477153 8.5,11 C8.5,11.5522847 8.94771525,12 9.5,12 Z M3,4 L5,4 C5.27614237,4 5.5,4.22385763 5.5,4.5 C5.5,4.77614237 5.27614237,5 5,5 L3,5 C2.72385763,5 2.5,4.77614237 2.5,4.5 C2.5,4.22385763 2.72385763,4 3,4 Z M3,6 L7,6 C7.27614237,6 7.5,6.22385763 7.5,6.5 C7.5,6.77614237 7.27614237,7 7,7 L3,7 C2.72385763,7 2.5,6.77614237 2.5,6.5 C2.5,6.22385763 2.72385763,6 3,6 Z" id="合并形状" fill="#FFFFFF" fill-rule="nonzero"></path>
    </g>
</svg>