<?xml version="1.0" encoding="UTF-8"?>
<svg width="14px" height="14px" viewBox="0 0 14 14" version="1.1" xmlns="http://www.w3.org/2000/svg" xmlns:xlink="http://www.w3.org/1999/xlink">
    <!-- Generator: Sketch 53.2 (72643) - https://sketchapp.com -->
    <title>icon_aftersale</title>
    <desc>Created with Sketch.</desc>
    <g id="icon_aftersale" stroke="none" stroke-width="1" fill="none" fill-rule="evenodd">
        <path d="M5.29289322,2 L4.64644661,1.35355339 C4.45118446,1.15829124 4.45118446,0.841708755 4.64644661,0.646446609 C4.84170876,0.451184464 5.15829124,0.451184464 5.35355339,0.646446609 L6.85355339,2.14644661 C7.04881554,2.34170876 7.04881554,2.65829124 6.85355339,2.85355339 L5.35355339,4.35355339 C5.15829124,4.54881554 4.84170876,4.54881554 4.64644661,4.35355339 C4.45118446,4.15829124 4.45118446,3.84170876 4.64644661,3.64644661 L5.29289322,3 L2.5,3 C2.22385763,3 2,3.22385763 2,3.5 L2,11.5 C2,11.7761424 2.22385763,12 2.5,12 L11.5,12 C11.7761424,12 12,11.7761424 12,11.5 L12,3.5 C12,3.22385763 11.7761424,3 11.5,3 L9.41421356,3 C9.13807119,3 8.91421356,2.77614237 8.91421356,2.5 C8.91421356,2.22385763 9.13807119,2 9.41421356,2 L11.5,2 C12.3284271,2 13,2.67157288 13,3.5 L13,11.5 C13,12.3284271 12.3284271,13 11.5,13 L2.5,13 C1.67157288,13 1,12.3284271 1,11.5 L1,3.5 C1,2.67157288 1.67157288,2 2.5,2 L5.29289322,2 Z M7.5,8 L7.5,9 L9.5,9 C9.77614237,9 10,9.22385763 10,9.5 C10,9.77614237 9.77614237,10 9.5,10 L7.5,10 L7.5,11 C7.5,11.2761424 7.27614237,11.5 7,11.5 C6.72385763,11.5 6.5,11.2761424 6.5,11 L6.5,10 L4.5,10 C4.22385763,10 4,9.77614237 4,9.5 C4,9.22385763 4.22385763,9 4.5,9 L6.5,9 L6.5,8 L4.5,8 C4.22385763,8 4,7.77614237 4,7.5 C4,7.22385763 4.22385763,7 4.5,7 L5.79289322,7 L4.93933983,6.14644661 C4.74407768,5.95118446 4.74407768,5.63460197 4.93933983,5.43933983 C5.13460197,5.24407768 5.45118446,5.24407768 5.64644661,5.43933983 L7,6.79289322 L8.35355339,5.43933983 C8.54881554,5.24407768 8.86539803,5.24407768 9.06066017,5.43933983 C9.25592232,5.63460197 9.25592232,5.95118446 9.06066017,6.14644661 L8.20710678,7 L9.5,7 C9.77614237,7 10,7.22385763 10,7.5 C10,7.77614237 9.77614237,8 9.5,8 L7.5,8 Z" id="合并形状" fill="#FFFFFF"></path>
    </g>
</svg>