<?xml version="1.0" encoding="UTF-8"?>
<svg width="14px" height="14px" viewBox="0 0 14 14" version="1.1" xmlns="http://www.w3.org/2000/svg" xmlns:xlink="http://www.w3.org/1999/xlink">
    <!-- Generator: Sketch 53.2 (72643) - https://sketchapp.com -->
    <title>icon_writeoff</title>
    <desc>Created with Sketch.</desc>
    <g id="icon_writeoff" stroke="none" stroke-width="1" fill="none" fill-rule="evenodd">
        <path d="M6.18566017,8.66789322 L9.47487373,5.37867966 C9.67013588,5.18341751 9.98671837,5.18341751 10.1819805,5.37867966 C10.3772427,5.5739418 10.3772427,5.89052429 10.1819805,6.08578644 L6.64644661,9.62132034 C6.57002318,9.69774378 6.47501525,9.74425593 6.37597037,9.7608568 C6.18584951,9.86614689 5.94167358,9.83812019 5.78033009,9.6767767 L4.01256313,7.90900974 C3.81730099,7.7137476 3.81730099,7.39716511 4.01256313,7.20190296 C4.20782528,7.00664082 4.52440777,7.00664082 4.71966991,7.20190296 L6.18566017,8.66789322 Z M9,2 C8.72385763,2 8.5,1.77614237 8.5,1.5 C8.5,1.22385763 8.72385763,1 9,1 L11.5,1 C12.3284271,1 13,1.67157288 13,2.5 L13,5 C13,5.27614237 12.7761424,5.5 12.5,5.5 C12.2238576,5.5 12,5.27614237 12,5 L12,2.5 C12,2.22385763 11.7761424,2 11.5,2 L9,2 Z M12,9 C12,8.72385763 12.2238576,8.5 12.5,8.5 C12.7761424,8.5 13,8.72385763 13,9 L13,11.5 C13,12.3284271 12.3284271,13 11.5,13 L9,13 C8.72385763,13 8.5,12.7761424 8.5,12.5 C8.5,12.2238576 8.72385763,12 9,12 L11.5,12 C11.7761424,12 12,11.7761424 12,11.5 L12,9 Z M5,12 C5.27614237,12 5.5,12.2238576 5.5,12.5 C5.5,12.7761424 5.27614237,13 5,13 L2.5,13 C1.67157288,13 1,12.3284271 1,11.5 L1,9 C1,8.72385763 1.22385763,8.5 1.5,8.5 C1.77614237,8.5 2,8.72385763 2,9 L2,11.5 C2,11.7761424 2.22385763,12 2.5,12 L5,12 Z M2,5 C2,5.27614237 1.77614237,5.5 1.5,5.5 C1.22385763,5.5 1,5.27614237 1,5 L1,2.5 C1,1.67157288 1.67157288,1 2.5,1 L5,1 C5.27614237,1 5.5,1.22385763 5.5,1.5 C5.5,1.77614237 5.27614237,2 5,2 L2.5,2 C2.22385763,2 2,2.22385763 2,2.5 L2,5 Z" id="合并形状" fill="#FFFFFF"></path>
    </g>
</svg>