<?xml version="1.0" encoding="UTF-8"?>
<svg width="14px" height="14px" viewBox="0 0 14 14" version="1.1" xmlns="http://www.w3.org/2000/svg" xmlns:xlink="http://www.w3.org/1999/xlink">
    <!-- Generator: Sketch 53.2 (72643) - https://sketchapp.com -->
    <title>icon_pack</title>
    <desc>Created with Sketch.</desc>
    <g id="icon_pack" stroke="none" stroke-width="1" fill="none" fill-rule="evenodd">
        <path d="M2,4 L12,4 L12,2.5 C12,2.22385763 11.7761424,2 11.5,2 L2.5,2 C2.22385763,2 2,2.22385763 2,2.5 L2,4 Z M12.5,5 L12.5,11.5 C12.5,12.3284271 11.8284271,13 11,13 L3,13 C2.17157288,13 1.5,12.3284271 1.5,11.5 L1.5,5 C1.22385763,5 1,4.77614237 1,4.5 L1,2.5 C1,1.67157288 1.67157288,1 2.5,1 L11.5,1 C12.3284271,1 13,1.67157288 13,2.5 L13,4.5 C13,4.77614237 12.7761424,5 12.5,5 Z M11.5,5 L2.5,5 L2.5,11.5 C2.5,11.7761424 2.72385763,12 3,12 L11,12 C11.2761424,12 11.5,11.7761424 11.5,11.5 L11.5,5 Z M4.5,8 L9.5,8 C9.77614237,8 10,8.22385763 10,8.5 C10,8.77614237 9.77614237,9 9.5,9 L4.5,9 C4.22385763,9 4,8.77614237 4,8.5 C4,8.22385763 4.22385763,8 4.5,8 Z" id="合并形状" fill="#FFFFFF"></path>
    </g>
</svg>