<?xml version="1.0" encoding="UTF-8"?>
<svg width="14px" height="14px" viewBox="0 0 14 14" version="1.1" xmlns="http://www.w3.org/2000/svg" xmlns:xlink="http://www.w3.org/1999/xlink">
    <!-- Generator: Sketch 53.2 (72643) - https://sketchapp.com -->
    <title>icon_completionofpicking  </title>
    <desc>Created with Sketch.</desc>
    <g id="icon_completionofpicking--" stroke="none" stroke-width="1" fill="none" fill-rule="evenodd">
        <path d="M2.07666996,1.00584161 C2.07876913,1.00551842 2.08087331,1.00520788 2.08298243,1.00491011 C2.35641302,0.966305456 2.60936757,1.1566695 2.64797222,1.4301001 L2.82180432,2.66132523 C2.96066554,2.59106484 3.11291257,2.54138983 3.27518664,2.51685552 C3.34940544,2.50563433 3.42436184,2.5 3.49942412,2.5 L12.0024418,2.5 C12.8308689,2.5 13.5024418,3.17157288 13.5024418,4 C13.5024418,4.13926626 13.4830471,4.27785402 13.4448167,4.41177013 L12.0174134,9.41177013 C11.8335332,10.0558777 11.2448792,10.5 10.5750385,10.5 L4.25537706,10.5 C3.51354467,10.5 2.88313033,9.95773389 2.77223258,9.22423748 L2.54187661,7.70062436 C2.52406332,7.65988731 2.51142985,7.61607823 2.50491011,7.5698999 L2.2621432,5.85042043 L2.01627964,4.22423748 C2.00428917,4.14493049 1.99874316,4.06613622 1.99924955,3.98838644 L1.71851666,2 L1,2 C0.723857625,2 0.5,1.77614237 0.5,1.5 C0.5,1.22385763 0.723857625,1 1,1 L2,1 C2.02607082,1 2.0516756,1.00199533 2.07666996,1.00584161 Z M3.00264837,3.94221495 L3.25163832,5.70577124 L3.76099556,9.07474583 C3.79796148,9.31924463 4.00809959,9.5 4.25537706,9.5 L10.5750385,9.5 C10.7983187,9.5 10.9945367,9.35195923 11.0558301,9.13725671 L12.4832334,4.13725671 C12.4959769,4.09261801 12.5024418,4.04642209 12.5024418,4 C12.5024418,3.72385763 12.2785841,3.5 12.0024418,3.5 L3.49942412,3.5 C3.47440336,3.5 3.4494179,3.50187811 3.4246783,3.50561851 C3.19660099,3.54010165 3.02794741,3.72357728 3.00264837,3.94221495 Z M7.18566017,7.66789322 L10.4748737,4.37867966 C10.6701359,4.18341751 10.9867184,4.18341751 11.1819805,4.37867966 C11.3772427,4.5739418 11.3772427,4.89052429 11.1819805,5.08578644 L7.64644661,8.62132034 C7.57002318,8.69774378 7.47501525,8.74425593 7.37597037,8.7608568 C7.18584951,8.86614689 6.94167358,8.83812019 6.78033009,8.6767767 L5.01256313,6.90900974 C4.81730099,6.7137476 4.81730099,6.39716511 5.01256313,6.20190296 C5.20782528,6.00664082 5.52440777,6.00664082 5.71966991,6.20190296 L7.18566017,7.66789322 Z M4,13.5 C3.17157288,13.5 2.5,12.8284271 2.5,12 C2.5,11.1715729 3.17157288,10.5 4,10.5 C4.82842712,10.5 5.5,11.1715729 5.5,12 C5.5,12.8284271 4.82842712,13.5 4,13.5 Z M4,12.5 C4.27614237,12.5 4.5,12.2761424 4.5,12 C4.5,11.7238576 4.27614237,11.5 4,11.5 C3.72385763,11.5 3.5,11.7238576 3.5,12 C3.5,12.2761424 3.72385763,12.5 4,12.5 Z M10,13.5 C9.17157288,13.5 8.5,12.8284271 8.5,12 C8.5,11.1715729 9.17157288,10.5 10,10.5 C10.8284271,10.5 11.5,11.1715729 11.5,12 C11.5,12.8284271 10.8284271,13.5 10,13.5 Z M10,12.5 C10.2761424,12.5 10.5,12.2761424 10.5,12 C10.5,11.7238576 10.2761424,11.5 10,11.5 C9.72385763,11.5 9.5,11.7238576 9.5,12 C9.5,12.2761424 9.72385763,12.5 10,12.5 Z" id="合并形状" fill="#FFFFFF"></path>
    </g>
</svg>