<?xml version="1.0" encoding="UTF-8"?>
<svg width="14px" height="14px" viewBox="0 0 14 14" version="1.1" xmlns="http://www.w3.org/2000/svg" xmlns:xlink="http://www.w3.org/1999/xlink">
    <!-- Generator: Sketch 53.2 (72643) - https://sketchapp.com -->
    <title>icon_packingcompleted</title>
    <desc>Created with Sketch.</desc>
    <g id="icon_packingcompleted" stroke="none" stroke-width="1" fill="none" fill-rule="evenodd">
        <path d="M2,4 L12,4 L12,2.5 C12,2.22385763 11.7761424,2 11.5,2 L2.5,2 C2.22385763,2 2,2.22385763 2,2.5 L2,4 Z M12.5,5 L12.5,11.5 C12.5,12.3284271 11.8284271,13 11,13 L3,13 C2.17157288,13 1.5,12.3284271 1.5,11.5 L1.5,5 C1.22385763,5 1,4.77614237 1,4.5 L1,2.5 C1,1.67157288 1.67157288,1 2.5,1 L11.5,1 C12.3284271,1 13,1.67157288 13,2.5 L13,4.5 C13,4.77614237 12.7761424,5 12.5,5 Z M11.5,5 L2.5,5 L2.5,11.5 C2.5,11.7761424 2.72385763,12 3,12 L11,12 C11.2761424,12 11.5,11.7761424 11.5,11.5 L11.5,5 Z M6.18566017,9.66789322 L9.47487373,6.37867966 C9.67013588,6.18341751 9.98671837,6.18341751 10.1819805,6.37867966 C10.3772427,6.5739418 10.3772427,6.89052429 10.1819805,7.08578644 L6.64644661,10.6213203 C6.57002318,10.6977438 6.47501525,10.7442559 6.37597037,10.7608568 C6.18584951,10.8661469 5.94167358,10.8381202 5.78033009,10.6767767 L4.01256313,8.90900974 C3.81730099,8.7137476 3.81730099,8.39716511 4.01256313,8.20190296 C4.20782528,8.00664082 4.52440777,8.00664082 4.71966991,8.20190296 L6.18566017,9.66789322 Z" id="合并形状" fill="#FFFFFF"></path>
    </g>
</svg>