<?xml version="1.0" encoding="UTF-8"?>
<svg width="14px" height="14px" viewBox="0 0 14 14" version="1.1" xmlns="http://www.w3.org/2000/svg" xmlns:xlink="http://www.w3.org/1999/xlink">
    <!-- Generator: Sketch 53.2 (72643) - https://sketchapp.com -->
    <title>icon_acquisitioncompleted</title>
    <desc>Created with Sketch.</desc>
    <g id="icon_acquisitioncompleted" stroke="none" stroke-width="1" fill="none" fill-rule="evenodd">
        <path d="M6.18566017,8.66789322 L9.47487373,5.37867966 C9.67013588,5.18341751 9.98671837,5.18341751 10.1819805,5.37867966 C10.3772427,5.5739418 10.3772427,5.89052429 10.1819805,6.08578644 L6.64644661,9.62132034 C6.57002318,9.69774378 6.47501525,9.74425593 6.37597037,9.7608568 C6.18584951,9.86614689 5.94167358,9.83812019 5.78033009,9.6767767 L4.01256313,7.90900974 C3.81730099,7.7137476 3.81730099,7.39716511 4.01256313,7.20190296 C4.20782528,7.00664082 4.52440777,7.00664082 4.71966991,7.20190296 L6.18566017,8.66789322 Z M5,2 C4.72385763,2 4.5,1.77614237 4.5,1.5 C4.5,1.22385763 4.72385763,1 5,1 L9,1 C9.27614237,1 9.5,1.22385763 9.5,1.5 C9.5,1.77614237 9.27614237,2 9,2 L5,2 Z M11,2 C10.7238576,2 10.5,1.77614237 10.5,1.5 C10.5,1.22385763 10.7238576,1 11,1 L11.5,1 C12.3284271,1 13,1.67157288 13,2.5 L13,11.5 C13,12.3284271 12.3284271,13 11.5,13 L2.5,13 C1.67157288,13 1,12.3284271 1,11.5 L1,2.5 C1,1.67157288 1.67157288,1 2.5,1 L3,1 C3.27614237,1 3.5,1.22385763 3.5,1.5 C3.5,1.77614237 3.27614237,2 3,2 L2.5,2 C2.22385763,2 2,2.22385763 2,2.5 L2,11.5 C2,11.7761424 2.22385763,12 2.5,12 L11.5,12 C11.7761424,12 12,11.7761424 12,11.5 L12,2.5 C12,2.22385763 11.7761424,2 11.5,2 L11,2 Z" id="合并形状" fill="#FFFFFF"></path>
    </g>
</svg>