<?xml version="1.0" encoding="UTF-8"?>
<svg width="14px" height="14px" viewBox="0 0 14 14" version="1.1" xmlns="http://www.w3.org/2000/svg" xmlns:xlink="http://www.w3.org/1999/xlink">
    <!-- Generator: Sketch 53.2 (72643) - https://sketchapp.com -->
    <title>icon_buyerreturn</title>
    <desc>Created with Sketch.</desc>
    <g id="icon_buyerreturn" stroke="none" stroke-width="1" fill="none" fill-rule="evenodd">
        <rect id="矩形" opacity="0.200000003" x="0" y="0" width="14" height="14"></rect>
        <path d="M5.70710678,5 L8,5 C9.38071187,5 10.5,6.11928813 10.5,7.5 C10.5,8.88071187 9.38071187,10 8,10 L5.5,10 C5.22385763,10 5,9.77614237 5,9.5 C5,9.22385763 5.22385763,9 5.5,9 L8,9 C8.82842712,9 9.5,8.32842712 9.5,7.5 C9.5,6.67157288 8.82842712,6 8,6 L5.70710678,6 L6.35355339,6.64644661 C6.54881554,6.84170876 6.54881554,7.15829124 6.35355339,7.35355339 C6.15829124,7.54881554 5.84170876,7.54881554 5.64644661,7.35355339 L4.14644661,5.85355339 C3.95118446,5.65829124 3.95118446,5.34170876 4.14644661,5.14644661 L5.64644661,3.64644661 C5.84170876,3.45118446 6.15829124,3.45118446 6.35355339,3.64644661 C6.54881554,3.84170876 6.54881554,4.15829124 6.35355339,4.35355339 L5.70710678,5 Z M7,13.5 C3.41014913,13.5 0.5,10.5898509 0.5,7 C0.5,3.41014913 3.41014913,0.5 7,0.5 C10.5898509,0.5 13.5,3.41014913 13.5,7 C13.5,10.5898509 10.5898509,13.5 7,13.5 Z M7,12.5 C10.0375661,12.5 12.5,10.0375661 12.5,7 C12.5,3.96243388 10.0375661,1.5 7,1.5 C3.96243388,1.5 1.5,3.96243388 1.5,7 C1.5,10.0375661 3.96243388,12.5 7,12.5 Z" id="合并形状" fill="#FFFFFF" fill-rule="nonzero"></path>
    </g>
</svg>