<?xml version="1.0" encoding="UTF-8"?>
<svg width="14px" height="14px" viewBox="0 0 14 14" version="1.1" xmlns="http://www.w3.org/2000/svg" xmlns:xlink="http://www.w3.org/1999/xlink">
    <!-- Generator: Sketch 53.2 (72643) - https://sketchapp.com -->
    <title>icon_refund</title>
    <desc>Created with Sketch.</desc>
    <g id="icon_refund" stroke="none" stroke-width="1" fill="none" fill-rule="evenodd">
        <path d="M11.6730973,10.4019351 C12.2103902,9.53886912 12.5,8.54155425 12.5,7.5 C12.5,4.46243388 10.0375661,2 7,2 C3.96243388,2 1.5,4.46243388 1.5,7.5 C1.5,10.5375661 3.96243388,13 7,13 C7.97664508,13 8.91501396,12.7455462 9.74207459,12.2688705 C9.98132454,12.130979 10.2870581,12.2131462 10.4249496,12.4523962 C10.5628411,12.6916462 10.4806739,12.9973797 10.2414239,13.1352712 C9.26349426,13.6989002 8.15310527,14 7,14 C3.41014913,14 0.5,11.0898509 0.5,7.5 C0.5,3.91014913 3.41014913,1 7,1 C10.5898509,1 13.5,3.91014913 13.5,7.5 C13.5,8.62748171 13.2119819,9.7130858 12.6746763,10.672145 L13.3738181,10.4848105 C13.6405511,10.4133396 13.9147196,10.5716309 13.9861905,10.8383639 C14.0576614,11.105097 13.8993702,11.3792654 13.6326371,11.4507364 L11.583599,11.9997745 C11.3168659,12.0712454 11.0426975,11.9129541 10.9712266,11.6462211 L10.4221885,9.59718296 C10.3507175,9.33044991 10.5090088,9.05628143 10.7757418,8.98481052 C11.0424749,8.91333962 11.3166434,9.07163086 11.3881143,9.33836391 L11.6730973,10.4019351 Z M7.5,7 L7.5,8 L9.5,8 C9.77614237,8 10,8.22385763 10,8.5 C10,8.77614237 9.77614237,9 9.5,9 L7.5,9 L7.5,10 C7.5,10.2761424 7.27614237,10.5 7,10.5 C6.72385763,10.5 6.5,10.2761424 6.5,10 L6.5,9 L4.5,9 C4.22385763,9 4,8.77614237 4,8.5 C4,8.22385763 4.22385763,8 4.5,8 L6.5,8 L6.5,7 L4.5,7 C4.22385763,7 4,6.77614237 4,6.5 C4,6.22385763 4.22385763,6 4.5,6 L5.79289322,6 L4.93933983,5.14644661 C4.74407768,4.95118446 4.74407768,4.63460197 4.93933983,4.43933983 C5.13460197,4.24407768 5.45118446,4.24407768 5.64644661,4.43933983 L7,5.79289322 L8.35355339,4.43933983 C8.54881554,4.24407768 8.86539803,4.24407768 9.06066017,4.43933983 C9.25592232,4.63460197 9.25592232,4.95118446 9.06066017,5.14644661 L8.20710678,6 L9.5,6 C9.77614237,6 10,6.22385763 10,6.5 C10,6.77614237 9.77614237,7 9.5,7 L7.5,7 Z" id="合并形状" fill="#FFFFFF"></path>
    </g>
</svg>