<?xml version="1.0" encoding="UTF-8"?>
<svg width="14px" height="14px" viewBox="0 0 14 14" version="1.1" xmlns="http://www.w3.org/2000/svg" xmlns:xlink="http://www.w3.org/1999/xlink">
    <!-- Generator: Sketch 53.2 (72643) - https://sketchapp.com -->
    <title>icon_warehousing</title>
    <desc>Created with Sketch.</desc>
    <g id="icon_warehousing" stroke="none" stroke-width="1" fill="none" fill-rule="evenodd">
        <path d="M8.29289322,8 L7.14644661,6.85355339 C6.95118446,6.65829124 6.95118446,6.34170876 7.14644661,6.14644661 C7.34170876,5.95118446 7.65829124,5.95118446 7.85355339,6.14644661 L9.85355339,8.14644661 C10.0488155,8.34170876 10.0488155,8.65829124 9.85355339,8.85355339 L7.85355339,10.8535534 C7.65829124,11.0488155 7.34170876,11.0488155 7.14644661,10.8535534 C6.95118446,10.6582912 6.95118446,10.3417088 7.14644661,10.1464466 L8.29289322,9 L1.5,9 C1.22385763,9 1,8.77614237 1,8.5 C1,8.22385763 1.22385763,8 1.5,8 L8.29289322,8 Z M7,2.08740883 L2.23757596,5.02392326 C2.08991606,5.11497047 2,5.27604776 2,5.44952122 L2,6.5 C2,6.77614237 1.77614237,7 1.5,7 C1.22385763,7 1,6.77614237 1,6.5 L1,5.44952122 C1,4.92910084 1.26974818,4.44586897 1.71272788,4.17272734 L6.73757596,1.07440204 C6.89846242,0.97519932 7.10153758,0.97519932 7.26242404,1.07440204 L12.2872721,4.17272734 C12.7302518,4.44586897 13,4.92910084 13,5.44952122 L13,11.5 C13,12.3284271 12.3284271,13 11.5,13 L2.5,13 C1.67157288,13 1,12.3284271 1,11.5 L1,10.5 C1,10.2238576 1.22385763,10 1.5,10 C1.77614237,10 2,10.2238576 2,10.5 L2,11.5 C2,11.7761424 2.22385763,12 2.5,12 L11.5,12 C11.7761424,12 12,11.7761424 12,11.5 L12,5.44952122 C12,5.27604776 11.9100839,5.11497047 11.762424,5.02392326 L7,2.08740883 Z" id="合并形状" fill="#FFFFFF" fill-rule="nonzero"></path>
    </g>
</svg>