<?xml version="1.0" encoding="UTF-8"?>
<svg width="14px" height="14px" viewBox="0 0 14 14" version="1.1" xmlns="http://www.w3.org/2000/svg" xmlns:xlink="http://www.w3.org/1999/xlink">
    <!-- Generator: Sketch 53.2 (72643) - https://sketchapp.com -->
    <title>icon_delivergoods  </title>
    <desc>Created with Sketch.</desc>
    <g id="icon_delivergoods--" stroke="none" stroke-width="1" fill="none" fill-rule="evenodd">
        <rect id="矩形-copy-6" opacity="0.200000003" x="0" y="0" width="14" height="14"></rect>
        <path d="M9.29289322,8 L8.64644661,7.35355339 C8.45118446,7.15829124 8.45118446,6.84170876 8.64644661,6.64644661 C8.84170876,6.45118446 9.15829124,6.45118446 9.35355339,6.64644661 L10.8535534,8.14644661 C11.0488155,8.34170876 11.0488155,8.65829124 10.8535534,8.85355339 L9.35355339,10.3535534 C9.15829124,10.5488155 8.84170876,10.5488155 8.64644661,10.3535534 C8.45118446,10.1582912 8.45118446,9.84170876 8.64644661,9.64644661 L9.29289322,9 L6.5,9 C6.22385763,9 6,8.77614237 6,8.5 C6,8.22385763 6.22385763,8 6.5,8 L9.29289322,8 Z M1.03395615,5.18116162 C0.981315228,5.0454987 0.988055643,4.88812041 1.06587843,4.75193053 L2.77795782,1.75579159 C3.04502211,1.2884291 3.54203726,1 4.08032254,1 L9.91967746,1 C10.4579627,1 10.9549779,1.2884291 11.2220422,1.75579159 L12.9341216,4.75193053 C13.0119444,4.88812041 13.0186848,5.0454987 12.9660439,5.18116162 C12.988286,5.28391465 13,5.39058935 13,5.5 L13,11.5 C13,12.3284271 12.3284271,13 11.5,13 L2.5,13 C1.67157288,13 1,12.3284271 1,11.5 L1,11 C1,10.7238576 1.22385763,10.5 1.5,10.5 C1.77614237,10.5 2,10.7238576 2,11 L2,11.5 C2,11.7761424 2.22385763,12 2.5,12 L11.5,12 C11.7761424,12 12,11.7761424 12,11.5 L12,5.5 C12,5.22385763 11.7761424,5 11.5,5 L2.5,5 C2.22385763,5 2,5.22385763 2,5.5 L2,6 C2,6.27614237 1.77614237,6.5 1.5,6.5 C1.22385763,6.5 1,6.27614237 1,6 L1,5.5 C1,5.39058935 1.01171396,5.28391465 1.03395615,5.18116162 Z M2.64730412,4 L11.3526959,4 L10.353799,2.25193053 C10.2647776,2.09614303 10.0991059,2 9.91967746,2 L4.08032254,2 C3.90089411,2 3.73522239,2.09614303 3.64620096,2.25193053 L2.64730412,4 Z M1.5,9 L2.5,9 C2.77614237,9 3,9.22385763 3,9.5 C3,9.77614237 2.77614237,10 2.5,10 L1.5,10 C1.22385763,10 1,9.77614237 1,9.5 C1,9.22385763 1.22385763,9 1.5,9 Z M1.5,7 L3.5,7 C3.77614237,7 4,7.22385763 4,7.5 C4,7.77614237 3.77614237,8 3.5,8 L1.5,8 C1.22385763,8 1,7.77614237 1,7.5 C1,7.22385763 1.22385763,7 1.5,7 Z" id="合并形状" fill="#FFFFFF" fill-rule="nonzero"></path>
    </g>
</svg>