<?xml version="1.0" encoding="UTF-8"?>
<svg width="14px" height="14px" viewBox="0 0 14 14" version="1.1" xmlns="http://www.w3.org/2000/svg" xmlns:xlink="http://www.w3.org/1999/xlink">
    <!-- Generator: Sketch 53.2 (72643) - https://sketchapp.com -->
    <title>icon_uptime</title>
    <desc>Created with Sketch.</desc>
    <g id="icon_uptime" stroke="none" stroke-width="1" fill="none" fill-rule="evenodd">
        <path d="M7.5,9 L9,9 C9.27614237,9 9.5,9.22385763 9.5,9.5 C9.5,9.77614237 9.27614237,10 9,10 L7,10 C6.72385763,10 6.5,9.77614237 6.5,9.5 L6.5,6.5 C6.5,6.22385763 6.72385763,6 7,6 C7.27614237,6 7.5,6.22385763 7.5,6.5 L7.5,9 Z M1.03395615,5.18116162 C0.981315228,5.0454987 0.988055643,4.88812041 1.06587843,4.75193053 L2.77795782,1.75579159 C3.04502211,1.2884291 3.54203726,1 4.08032254,1 L9.91967746,1 C10.4579627,1 10.9549779,1.2884291 11.2220422,1.75579159 L12.9341216,4.75193053 C13.0119444,4.88812041 13.0186848,5.0454987 12.9660439,5.18116162 C12.988286,5.28391465 13,5.39058935 13,5.5 L13,11.5 C13,12.3284271 12.3284271,13 11.5,13 L2.5,13 C1.67157288,13 1,12.3284271 1,11.5 L1,5.5 C1,5.39058935 1.01171396,5.28391465 1.03395615,5.18116162 Z M2.64730412,4 L11.3526959,4 L10.353799,2.25193053 C10.2647776,2.09614303 10.0991059,2 9.91967746,2 L4.08032254,2 C3.90089411,2 3.73522239,2.09614303 3.64620096,2.25193053 L2.64730412,4 Z M2,11.5 C2,11.7761424 2.22385763,12 2.5,12 L11.5,12 C11.7761424,12 12,11.7761424 12,11.5 L12,5.5 C12,5.22385763 11.7761424,5 11.5,5 L2.5,5 C2.22385763,5 2,5.22385763 2,5.5 L2,11.5 Z" id="合并形状" fill="#FFFFFF" fill-rule="nonzero"></path>
    </g>
</svg>