<?xml version="1.0" encoding="UTF-8"?>
<svg width="14px" height="14px" viewBox="0 0 14 14" version="1.1" xmlns="http://www.w3.org/2000/svg" xmlns:xlink="http://www.w3.org/1999/xlink">
    <!-- Generator: Sketch 53.2 (72643) - https://sketchapp.com -->
    <title>icon_upperwall</title>
    <desc>Created with Sketch.</desc>
    <g id="icon_upperwall" stroke="none" stroke-width="1" fill="none" fill-rule="evenodd">
        <path d="M6.5,6.70710678 L5.35355339,7.85355339 C5.15829124,8.04881554 4.84170876,8.04881554 4.64644661,7.85355339 C4.45118446,7.65829124 4.45118446,7.34170876 4.64644661,7.14644661 L6.64644661,5.14644661 C6.84170876,4.95118446 7.15829124,4.95118446 7.35355339,5.14644661 L9.35355339,7.14644661 C9.54881554,7.34170876 9.54881554,7.65829124 9.35355339,7.85355339 C9.15829124,8.04881554 8.84170876,8.04881554 8.64644661,7.85355339 L7.5,6.70710678 L7.5,12 C7.5,12.2761424 7.27614237,12.5 7,12.5 C6.72385763,12.5 6.5,12.2761424 6.5,12 L6.5,6.70710678 Z M5,11.5 C5.27614237,11.5 5.5,11.7238576 5.5,12 C5.5,12.2761424 5.27614237,12.5 5,12.5 L2.5,12.5 C1.681644,12.5 1,11.8803236 1,11.0909091 L1,2.90909091 C1,2.11967636 1.681644,1.5 2.5,1.5 L11.5,1.5 C12.318356,1.5 13,2.11967636 13,2.90909091 L13,11.0909091 C13,11.8803236 12.318356,12.5 11.5,12.5 L9,12.5 C8.72385763,12.5 8.5,12.2761424 8.5,12 C8.5,11.7238576 8.72385763,11.5 9,11.5 L11.5,11.5 C11.7862135,11.5 12,11.3056486 12,11.0909091 L12,2.90909091 C12,2.69435136 11.7862135,2.5 11.5,2.5 L2.5,2.5 C2.2137865,2.5 2,2.69435136 2,2.90909091 L2,11.0909091 C2,11.3056486 2.2137865,11.5 2.5,11.5 L5,11.5 Z" id="合并形状" fill="#FFFFFF"></path>
    </g>
</svg>