<?xml version="1.0" encoding="UTF-8"?>
<svg width="14px" height="14px" viewBox="0 0 14 14" version="1.1" xmlns="http://www.w3.org/2000/svg" xmlns:xlink="http://www.w3.org/1999/xlink">
    <!-- Generator: Sketch 53.2 (72643) - https://sketchapp.com -->
    <title>icon_buyer</title>
    <desc>Created with Sketch.</desc>
    <g id="icon_buyer" stroke="none" stroke-width="1" fill="none" fill-rule="evenodd">
        <rect id="矩形" opacity="0.200000003" x="0" y="0" width="14" height="14"></rect>
        <path d="M7.5,7.5 L7.5,8.5 L9.5,8.5 C9.77614237,8.5 10,8.72385763 10,9 C10,9.27614237 9.77614237,9.5 9.5,9.5 L7.5,9.5 L7.5,10.5 C7.5,10.7761424 7.27614237,11 7,11 C6.72385763,11 6.5,10.7761424 6.5,10.5 L6.5,9.5 L4.5,9.5 C4.22385763,9.5 4,9.27614237 4,9 C4,8.72385763 4.22385763,8.5 4.5,8.5 L6.5,8.5 L6.5,7.5 L4.5,7.5 C4.22385763,7.5 4,7.27614237 4,7 C4,6.72385763 4.22385763,6.5 4.5,6.5 L5.79289322,6.5 L4.93933983,5.64644661 C4.74407768,5.45118446 4.74407768,5.13460197 4.93933983,4.93933983 C5.13460197,4.74407768 5.45118446,4.74407768 5.64644661,4.93933983 L7,6.29289322 L8.35355339,4.93933983 C8.54881554,4.74407768 8.86539803,4.74407768 9.06066017,4.93933983 C9.25592232,5.13460197 9.25592232,5.45118446 9.06066017,5.64644661 L8.20710678,6.5 L9.5,6.5 C9.77614237,6.5 10,6.72385763 10,7 C10,7.27614237 9.77614237,7.5 9.5,7.5 L7.5,7.5 Z M11,3 C10.7238576,3 10.5,2.77614237 10.5,2.5 C10.5,2.22385763 10.7238576,2 11,2 L11.5,2 C12.3284271,2 13,2.67157288 13,3.5 L13,11.5 C13,12.3284271 12.3284271,13 11.5,13 L2.5,13 C1.67157288,13 1,12.3284271 1,11.5 L1,3.5 C1,2.67157288 1.67157288,2 2.5,2 L3,2 C3.27614237,2 3.5,2.22385763 3.5,2.5 C3.5,2.77614237 3.27614237,3 3,3 L2.5,3 C2.22385763,3 2,3.22385763 2,3.5 L2,11.5 C2,11.7761424 2.22385763,12 2.5,12 L11.5,12 C11.7761424,12 12,11.7761424 12,11.5 L12,3.5 C12,3.22385763 11.7761424,3 11.5,3 L11,3 Z M5.5,2 C5.22385763,2 5,2.22385763 5,2.5 C5,2.77614237 5.22385763,3 5.5,3 L8.5,3 C8.77614237,3 9,2.77614237 9,2.5 C9,2.22385763 8.77614237,2 8.5,2 L5.5,2 Z M5.5,1 L8.5,1 C9.32842712,1 10,1.67157288 10,2.5 C10,3.32842712 9.32842712,4 8.5,4 L5.5,4 C4.67157288,4 4,3.32842712 4,2.5 C4,1.67157288 4.67157288,1 5.5,1 Z" id="合并形状" fill="#FFFFFF" fill-rule="nonzero"></path>
    </g>
</svg>