<?xml version="1.0" encoding="UTF-8"?>
<svg width="28px" height="28px" viewBox="0 0 28 28" version="1.1" xmlns="http://www.w3.org/2000/svg" xmlns:xlink="http://www.w3.org/1999/xlink">
    <!-- Generator: Sketch 54 (76480) - https://sketchapp.com -->
    <title>icon_discount</title>
    <desc>Created with Sketch.</desc>
    <g id="icon_discount" stroke="none" stroke-width="1" fill="none" fill-rule="evenodd">
        <rect id="矩形" fill="#FFFFFF" transform="translate(13.916042, 12.449443) scale(-1, 1) rotate(44.000000) translate(-13.916042, -12.449443) " x="6.41604228" y="11.6994426" width="15" height="1.5" rx="0.75"></rect>
        <path d="M11.4417574,11.3948574 L11.4562497,11.3948574 C12.0991052,11.3932669 12.7151001,11.1416886 13.1692409,10.6952555 C13.6160122,10.2571667 13.8668119,9.66268821 13.866321,9.04294363 C13.8559884,7.74347984 12.7806781,6.69475234 11.4562497,6.69245185 L11.4417574,6.69245185 C10.5710688,6.67144728 9.75719951,7.1152044 9.31555792,7.85174871 C8.87391633,8.58829302 8.87391633,9.50186011 9.31555792,10.2384044 C9.75719951,10.9749487 10.5710688,11.4187059 11.4417574,11.3977013 L11.4417574,11.3948574 Z M11.4079935,9.99810848 C11.0389562,10.0070112 10.6975971,9.82088725 10.5162529,9.51845201 C10.3403513,9.22509347 10.3403513,8.86505966 10.5162529,8.57170112 C10.6975971,8.26926588 11.0389562,8.08314196 11.4079935,8.09204465 L11.4562497,8.09245185 C12.0161545,8.0934265 12.4621857,8.52843131 12.4663653,9.05407531 C12.4665134,9.28632401 12.3677576,9.52040809 12.1890524,9.69564029 C11.9953247,9.8860785 11.73065,9.99417418 11.4527859,9.99486166 L11.4417574,9.99485738 L11.4087123,10.0279025 L11.4079935,9.99810848 Z" id="路径" fill="#FFFFFF" fill-rule="nonzero"></path>
        <path d="M17.4053434,12.5224678 C16.1038106,12.5591202 15.0697989,13.6079532 15.0757012,14.8855026 C15.0816036,16.163052 16.1252639,17.202644 17.4270819,17.2277172 L17.4430234,17.2277172 C18.7668656,17.2277172 19.8400517,16.1747296 19.8400517,14.8758035 C19.8400517,13.5768774 18.7668656,12.5238897 17.4430234,12.5238897 L17.4053434,12.5224678 Z M17.4430234,13.9238897 C17.9995583,13.9238897 18.4400517,14.3560925 18.4400517,14.8758035 C18.4400517,15.3955144 17.9995583,15.8277172 17.4430234,15.8277172 L17.4270819,15.8277172 C16.9065577,15.8174322 16.4780497,15.3905946 16.4756863,14.8790346 C16.4733838,14.3806744 16.8762679,13.9592749 17.4032275,13.9238897 L17.4430234,13.9238897 Z" id="路径" fill="#FFFFFF" fill-rule="nonzero"></path>
        <path d="M22.0414338,25.7139453 L14.6677459,22.5444074 L14.5402135,22.4832633 C14.196173,22.3524195 13.8147215,22.3524195 13.470681,22.4832633 L7.52883336,24.9389798 L5.93467913,25.7096794 C5.69984865,25.8263798 5.44889461,25.9087761 5.18977435,25.9542557 C5.05789406,25.9786675 4.9239931,25.991044 4.78978657,25.9912265 C3.87039447,26.0564416 3.07083876,25.3788258 3.0028846,24.4768444 L3.0028846,4.62777303 C3.16569674,3.0455431 4.58872033,1.88190373 6.20423613,2.0099537 L21.773326,2.0099537 C23.1065954,1.94837315 24.3378445,2.70817278 24.8587391,3.91395158 C24.9372477,4.14308619 24.9773806,4.38319287 24.977576,4.62492913 L24.977576,24.3901051 C24.9809374,24.6359796 24.9263814,24.8792942 24.8181606,25.1010826 C24.7561274,25.2299639 24.674525,25.3488651 24.576139,25.4537275 C24.2137839,25.8213698 23.7085729,26.0195473 23.1877756,25.9983363 C22.7884162,25.9915935 22.3960655,25.8942569 22.0414338,25.7139453 Z M4.78788209,24.5912278 C4.8372629,24.5911607 4.88651034,24.5866087 4.94775223,24.5753339 C5.07462349,24.553066 5.19724431,24.5128057 5.32532008,24.4492503 L6.99409477,23.6451271 L12.973016,21.1747032 C13.6376325,20.9219396 14.3732619,20.9219396 15.0378785,21.1747032 L15.1454621,21.2208552 L15.2206157,21.2581979 L22.6759522,24.4659924 C22.8409273,24.5498736 23.0243471,24.5953774 23.21141,24.5985358 L23.2447474,24.599496 C23.3723353,24.6046924 23.4944708,24.5567827 23.5551634,24.4958085 L23.5599547,24.4871462 C23.572129,24.4621962 23.5780686,24.435706 23.577576,24.3901051 L23.5775765,4.62606111 C23.5775187,4.55465233 23.5678357,4.48355691 23.548775,4.41450155 C23.2465352,3.77746103 22.5701894,3.3745999 21.773326,3.4099537 L6.20423613,3.4099537 L6.09361544,3.40557652 C5.25158467,3.33883498 4.51659375,3.92143718 4.4028846,4.71145927 L4.4028846,24.3991626 C4.42755701,24.514031 4.55289869,24.6047586 4.78788209,24.5912278 Z" id="路径" fill="#FFFFFF" fill-rule="nonzero"></path>
    </g>
</svg>