<?xml version="1.0" encoding="UTF-8"?>
<svg width="28px" height="28px" viewBox="0 0 28 28" version="1.1" xmlns="http://www.w3.org/2000/svg" xmlns:xlink="http://www.w3.org/1999/xlink">
    <!-- Generator: Sketch 54 (76480) - https://sketchapp.com -->
    <title>icon_password</title>
    <desc>Created with Sketch.</desc>
    <g id="icon_password" stroke="none" stroke-width="1" fill="none" fill-rule="evenodd">
        <path d="M17.5,18 C21.6421356,18 25,14.6421356 25,10.5 C25,6.35786438 21.6421356,3 17.5,3 C13.3578644,3 10,6.35786438 10,10.5 C10,14.6421356 13.3578644,18 17.5,18 Z M11.4,10.5 C11.4,7.13106303 14.131063,4.4 17.5,4.4 C20.868937,4.4 23.6,7.13106303 23.6,10.5 C23.6,13.868937 20.868937,16.6 17.5,16.6 C14.131063,16.6 11.4,13.868937 11.4,10.5 Z" id="椭圆形" fill="#FFFFFF" fill-rule="nonzero"></path>
        <rect id="矩形" fill="#FFFFFF" transform="translate(8.833631, 19.833631) scale(-1, 1) rotate(45.000000) translate(-8.833631, -19.833631) " x="2.33363094" y="19.0836309" width="13" height="1.5" rx="0.75"></rect>
        <rect id="矩形" fill="#FFFFFF" transform="translate(9.444544, 21.944544) scale(-1, 1) rotate(-45.000000) translate(-9.444544, -21.944544) " x="6.94454365" y="21.1945436" width="5" height="1.5" rx="0.75"></rect>
    </g>
</svg>