<?xml version="1.0" encoding="UTF-8"?>
<svg width="28px" height="28px" viewBox="0 0 28 28" version="1.1" xmlns="http://www.w3.org/2000/svg" xmlns:xlink="http://www.w3.org/1999/xlink">
    <!-- Generator: Sketch 54 (76480) - https://sketchapp.com -->
    <title>icon_cashcoupon</title>
    <desc>Created with Sketch.</desc>
    <g id="icon_cashcoupon" stroke="none" stroke-width="1" fill="none" fill-rule="evenodd">
        <path d="M16.5539495,21.6647107 L16.0904133,22.1312216 L12.6056411,25.6158033 C12.092601,26.1288153 11.260036,26.1273153 10.7469959,25.6158033 L9.8184234,24.6857815 L8.88985086,23.7557597 L7.95977822,22.8272379 C8.72933833,22.0577199 8.72933833,20.8081906 7.95977822,20.0386726 C7.1902181,19.2691546 5.94212062,19.2691546 5.17256052,20.0386726 L4.24248788,19.1101508 L3.31391534,18.1801291 L2.38534281,17.2501073 C1.87080261,16.7370952 1.87230274,15.9060758 2.38534281,15.3930638 L5.86861494,11.9084821 L6.33215115,11.4419712 L15.3943589,2.38475901 C15.907399,1.871747 16.7384639,1.871747 17.251504,2.38475901 L18.6451128,3.77829167 L19.1101492,4.24180254 L20.0387217,5.17182433 C19.2691616,5.94134237 19.2691616,7.18937161 20.0387217,7.95888962 C20.8082818,8.72840766 22.0578794,8.72840766 22.8274395,7.95888962 L23.7560121,8.88891141 L25.1496209,10.2824441 L25.6146572,10.7459549 C26.1276973,11.2589669 26.1291974,12.0929865 25.6146572,12.6059985 L16.5539495,21.6647107 Z M24.1596985,11.2724206 L22.765291,9.87808869 L22.6117692,9.72432732 C21.4133189,10.1702256 20.0117243,9.91173856 19.0487993,8.9488662 C18.0854334,7.98555303 17.8271139,6.58397617 18.2738407,5.38562856 L18.1218273,5.23337702 L17.6551904,4.76826823 L16.3229162,3.43606687 L7.32526189,12.4287493 L6.85875046,12.8982455 L3.43666091,16.3216216 L4.30463646,17.1909518 L5.23161098,18.1193756 L5.38633517,18.2738418 C6.58471354,17.8271024 7.98633904,18.0853871 8.94970065,19.0486961 C9.91262935,20.0115721 10.1711515,21.4131169 9.72526695,22.611536 L9.88057197,22.7665824 L10.8091445,23.6966042 L11.6763655,24.5651835 L15.0973026,21.1444435 L15.564109,20.6746522 L24.5646738,11.6760697 L24.1596985,11.2724206 Z" id="路径" fill="#FFFFFF" fill-rule="nonzero"></path>
        <path d="M7.00502533,11.9949748 L8.41923933,13.4091884 C8.69260638,13.6825553 9.13582186,13.6825553 9.40918882,13.4091882 C9.68255579,13.1358212 9.68255572,12.6926057 9.40918867,12.4192387 L7.99497467,11.0050252 C7.72160762,10.7316582 7.27839214,10.7316583 7.00502518,11.0050253 C6.73165821,11.2783924 6.73165828,11.7216079 7.00502533,11.9949748 Z" id="直线" fill="#FFFFFF" fill-rule="nonzero"></path>
        <path d="M10.5050253,15.4949747 L12.6263456,17.6162951 C12.8997126,17.8896621 13.3429281,17.8896621 13.6162951,17.6162951 C13.8896621,17.3429281 13.8896621,16.8997126 13.6162951,16.6263456 L11.4949747,14.5050253 C11.2216077,14.2316582 10.7783923,14.2316582 10.5050253,14.5050253 C10.2316582,14.7783923 10.2316582,15.2216077 10.5050253,15.4949747 Z" id="直线" fill="#FFFFFF" fill-rule="nonzero"></path>
        <path d="M14.5050253,19.4949747 L15.5656854,20.5556349 C15.8390524,20.8290019 16.2822679,20.8290019 16.5556349,20.5556349 C16.8290019,20.2822679 16.8290019,19.8390524 16.5556349,19.5656854 L15.4949747,18.5050253 C15.2216077,18.2316582 14.7783923,18.2316582 14.5050253,18.5050253 C14.2316582,18.7783923 14.2316582,19.2216077 14.5050253,19.4949747 Z" id="直线" fill="#FFFFFF" fill-rule="nonzero"></path>
    </g>
</svg>