<?xml version="1.0" encoding="UTF-8"?>
<svg width="28px" height="28px" viewBox="0 0 28 28" version="1.1" xmlns="http://www.w3.org/2000/svg" xmlns:xlink="http://www.w3.org/1999/xlink">
    <!-- Generator: Sketch 54 (76480) - https://sketchapp.com -->
    <title>icon_commodity</title>
    <desc>Created with Sketch.</desc>
    <g id="icon_commodity" stroke="none" stroke-width="1" fill="none" fill-rule="evenodd">
        <path d="M25.3451065,10.4036627 C24.7039694,9.69710843 23.8244135,9.80428916 23.53752,9.80428916 L5.4624557,9.80428916 C5.05076055,9.79156627 4.39703165,9.644 3.65494198,10.4036627 C3.18904641,10.8806024 2.93080591,11.3528434 3.05235654,12.2018313 C3.38605063,14.5251807 4.78771624,23.8087229 4.85994304,24.1895904 C4.99180485,24.7703373 5.63796414,25.987759 7.26996941,25.987759 L21.7299578,25.987759 C23.3621086,25.987759 24.0038038,24.7918072 24.1401297,24.1895904 C24.2082078,23.8301446 25.6148228,14.5248916 25.9475464,12.2018313 C26.0692426,11.3528675 25.7931698,10.8974699 25.3451065,10.4036627 Z M24.5446644,12.3643448 C24.2228932,14.5931444 22.7844403,23.9436879 22.7720206,24.0078393 C22.766572,24.0325075 22.4732093,24.59 21.590147,24.59 L7.40968655,24.59 C6.60709081,24.59 6.26069436,24.1198995 6.22797953,24.0078393 C6.21151505,23.9226708 4.77770166,14.5931444 4.45533573,12.3643448 C4.41177148,12.0634112 4.64305934,11.81158 4.85433762,11.5874362 C5.20299436,11.2175299 5.92086466,11.2 5.63716171,11.2 L23.3627908,11.2 C23.0791354,11.2 23.7977909,11.2178107 24.1463049,11.5874362 C24.356917,11.811697 24.5882286,12.0634112 24.5446644,12.3643448 Z" id="形状" fill="#FFFFFF" fill-rule="nonzero"></path>
        <path d="M9.07238819,12.8087229 C8.75713291,12.8087229 8.443673,12.9377108 8.2206846,13.1596145 C7.99762342,13.3813735 7.86770253,13.6930843 7.86770253,14.0067229 C7.86770253,14.3204578 7.99764768,14.6321205 8.2206846,14.8539518 C8.44369726,15.0756627 8.75713291,15.2047229 9.07238819,15.2047229 C9.38764346,15.2047229 9.70093354,15.0756627 9.92399473,14.8539518 C10.1470074,14.6321205 10.2767342,14.3204337 10.2767342,14.0067229 C10.2767342,13.6930602 10.1469831,13.3813735 9.92399473,13.1596145 C9.70093354,12.9377108 9.38769198,12.8087229 9.07238819,12.8087229 Z M19.9271508,12.8087229 C19.6118956,12.8087229 19.298557,12.9377108 19.0753745,13.1596145 C18.8525559,13.3813735 18.7228291,13.6930843 18.7228291,14.0067229 C18.7228291,14.3204578 18.8525802,14.6321205 19.0753745,14.8539518 C19.2985327,15.0756627 19.6118713,15.2047229 19.9271508,15.2047229 C20.2424304,15.2047229 20.555866,15.0756627 20.7788544,14.8539518 C21.0017458,14.6321205 21.1315939,14.3204337 21.1315939,14.0067229 C21.1315939,13.6930602 21.0017215,13.3813735 20.7788544,13.1596145 C20.555866,12.9377108 20.2424061,12.8087229 19.9271508,12.8087229 Z M8.54579008,9.20992771 C8.91500316,9.20992771 9.07745886,8.95968675 9.07745886,8.60549398 C9.07745886,6.02814458 11.5848713,3.21101205 14.4999272,3.21101205 C17.4151044,3.21101205 19.9224684,6.02812048 19.9224684,8.60549398 C19.9224684,8.95966265 20.0854821,9.20992771 20.4546951,9.20992771 C20.8239082,9.20992771 21.1276392,8.95968675 21.1276392,8.60549398 C21.1276392,5.3206747 18.1513713,2.01224096 14.4999272,2.01224096 C10.8485316,2.01224096 7.87231224,5.3206747 7.87231224,8.60549398 C7.87236076,8.95968675 8.176577,9.20992771 8.54579008,9.20992771 Z" id="形状" fill="#FFFFFF" fill-rule="nonzero"></path>
    </g>
</svg>