<?xml version="1.0" encoding="UTF-8"?>
<svg width="28px" height="28px" viewBox="0 0 28 28" version="1.1" xmlns="http://www.w3.org/2000/svg" xmlns:xlink="http://www.w3.org/1999/xlink">
    <!-- Generator: Sketch 54 (76480) - https://sketchapp.com -->
    <title>icon_matrix</title>
    <desc>Created with Sketch.</desc>
    <g id="icon_matrix" stroke="none" stroke-width="1" fill="none" fill-rule="evenodd">
        <path d="M3,3 L13,3 C14.1045695,3 15,3.8954305 15,5 L15,13 C15,14.1045695 14.1045695,15 13,15 L3,15 C1.8954305,15 1,14.1045695 1,13 L1,5 C1,3.8954305 1.8954305,3 3,3 Z M3,4.4 C2.66862915,4.4 2.4,4.66862915 2.4,5 L2.4,13 C2.4,13.3313708 2.66862915,13.6 3,13.6 L13,13.6 C13.3313708,13.6 13.6,13.3313708 13.6,13 L13.6,5 C13.6,4.66862915 13.3313708,4.4 13,4.4 L3,4.4 Z" id="矩形" fill="#FFFFFF" fill-rule="nonzero"></path>
        <path d="M18.5,3 L24.5,3 C25.6045695,3 26.5,3.8954305 26.5,5 L26.5,11 C26.5,12.1045695 25.6045695,13 24.5,13 L18.5,13 C17.3954305,13 16.5,12.1045695 16.5,11 L16.5,5 C16.5,3.8954305 17.3954305,3 18.5,3 Z M18.5,4.4 C18.1686292,4.4 17.9,4.66862915 17.9,5 L17.9,11 C17.9,11.3313708 18.1686292,11.6 18.5,11.6 L24.5,11.6 C24.8313708,11.6 25.1,11.3313708 25.1,11 L25.1,5 C25.1,4.66862915 24.8313708,4.4 24.5,4.4 L18.5,4.4 Z" id="矩形" fill="#FFFFFF" fill-rule="nonzero"></path>
        <path d="M3,16.5 L13,16.5 C14.1045695,16.5 15,17.3954305 15,18.5 L15,22.5 C15,23.6045695 14.1045695,24.5 13,24.5 L3,24.5 C1.8954305,24.5 1,23.6045695 1,22.5 L1,18.5 C1,17.3954305 1.8954305,16.5 3,16.5 Z M3,17.9 C2.66862915,17.9 2.4,18.1686292 2.4,18.5 L2.4,22.5 C2.4,22.8313708 2.66862915,23.1 3,23.1 L13,23.1 C13.3313708,23.1 13.6,22.8313708 13.6,22.5 L13.6,18.5 C13.6,18.1686292 13.3313708,17.9 13,17.9 L3,17.9 Z" id="矩形" fill="#FFFFFF" fill-rule="nonzero"></path>
        <path d="M18.5,14 L24.5,14 C25.6045695,14 26.5,14.8954305 26.5,16 L26.5,23 C26.5,24.1045695 25.6045695,25 24.5,25 L18.5,25 C17.3954305,25 16.5,24.1045695 16.5,23 L16.5,16 C16.5,14.8954305 17.3954305,14 18.5,14 Z M18.5,15.4 C18.1686292,15.4 17.9,15.6686292 17.9,16 L17.9,23 C17.9,23.3313708 18.1686292,23.6 18.5,23.6 L24.5,23.6 C24.8313708,23.6 25.1,23.3313708 25.1,23 L25.1,16 C25.1,15.6686292 24.8313708,15.4 24.5,15.4 L18.5,15.4 Z" id="矩形" fill="#FFFFFF" fill-rule="nonzero"></path>
    </g>
</svg>