<?xml version="1.0" encoding="UTF-8"?>
<svg width="28px" height="28px" viewBox="0 0 28 28" version="1.1" xmlns="http://www.w3.org/2000/svg" xmlns:xlink="http://www.w3.org/1999/xlink">
    <!-- Generator: Sketch 54 (76480) - https://sketchapp.com -->
    <title>icon_combination</title>
    <desc>Created with Sketch.</desc>
    <g id="icon_combination" stroke="none" stroke-width="1" fill="none" fill-rule="evenodd">
        <g id="组合" transform="translate(3.000000, 2.000000)" fill="#FFFFFF" fill-rule="nonzero">
            <path d="M9.43318748,12.4027724 L1.5979033,8.12019204 C1.44672444,8.03640183 1.27704827,7.99222195 1.10447606,7.99171463 C0.798973339,8.00276815 0.510680629,8.13689219 0.304329058,8.36397151 C0.0979774869,8.59105082 -0.00914076456,8.89205627 0.00702584818,9.19940229 L0.00702584818,17.5333037 C-0.0110998706,18.380343 0.43739086,19.1680618 1.17253499,19.5803771 L9.00781917,23.8629574 C9.15875923,23.9484039 9.32814134,23.9954475 9.50124641,24 C10.1336915,23.967646 10.6227942,23.4294136 10.5986966,22.7923123 L10.5986966,14.4412807 C10.6130426,13.5952154 10.1655866,12.809314 9.43318748,12.3942072 L9.43318748,12.4027724 Z M9.2,22.5802838 L1.62522185,18.2722927 C1.4575151,18.1442007 1.36198503,17.9371373 1.37052819,17.720239 L1.37052819,9.4 L8.91700706,13.6685586 C9.08340523,13.7977851 9.17857965,14.0040776 9.17170072,14.2206124 L9.17170072,22.6 L9.2,22.5802838 Z M21.853942,8.02597528 C21.6813227,8.02611261 21.5115566,8.07031589 21.3605148,8.1544527 L13.5252306,12.437033 C12.7901216,12.8578341 12.3428194,13.6500398 12.3597214,14.5012368 L12.3597214,22.8008775 C12.3495356,23.4249729 12.829765,23.9462375 13.4486643,23.9828697 C13.6212836,23.9827323 13.7910496,23.9385291 13.9420915,23.8543923 L21.7773757,19.5718119 C22.5175235,19.1644128 22.977588,18.3825744 22.9769143,17.5333037 L22.9769143,9.19940229 C23.0009195,8.56857251 22.5143959,8.036649 21.8879715,8.00884495 L21.853942,8.02597528 Z M21.5786704,17.7339791 C21.5926441,17.9482245 21.4957222,18.154232 21.3234488,18.276453 L13.7613296,22.5 L13.7613296,14.2853949 C13.7473559,14.0711496 13.8442777,13.865142 14.0165511,13.742921 L21.5786704,9.5 L21.5786704,17.714605 L21.5786704,17.7339791 Z M20.6373886,6.18446573 C20.9723932,6.03873709 21.1777634,5.69412823 21.1478306,5.32794966 C21.1777634,4.96177108 20.9723932,4.61716222 20.6373886,4.47143358 L12.6574792,0.283069992 C12.2932696,0.0900072935 11.8864926,-0.00722173382 11.4749554,0.000419695313 C11.0643848,0.0403959217 10.6609652,0.135454686 10.2754167,0.283069992 L2.2784926,4.46286841 C1.9536232,4.62002008 1.75289849,4.95683395 1.76805062,5.31938449 C1.75060199,5.68251954 1.95203024,6.02051394 2.2784926,6.17590057 L10.2498946,10.3471338 C10.6208174,10.5385534 11.0326612,10.6355971 11.4494332,10.6297841 C11.860328,10.5918054 12.2640134,10.496684 12.6489719,10.3471338 L20.6373886,6.18446573 Z M11.4599088,9.23 C11.3026398,9.22741945 11.147964,9.19160051 11.0071733,9.12515813 L3.2,5.31272722 L11.0071733,1.50029628 C11.3030852,1.36656791 11.6469148,1.36656791 11.9428267,1.50029628 L19.75,5.31272722 L11.9227052,9.12515813 C11.7796205,9.19400184 11.6202495,9.22682356 11.4599088,9.22046892 L11.4599088,9.23 Z" id="形状"></path>
        </g>
    </g>
</svg>