<?xml version="1.0" encoding="UTF-8"?>
<svg width="28px" height="28px" viewBox="0 0 28 28" version="1.1" xmlns="http://www.w3.org/2000/svg" xmlns:xlink="http://www.w3.org/1999/xlink">
    <!-- Generator: Sketch 54 (76480) - https://sketchapp.com -->
    <title>icon_mommy</title>
    <desc>Created with Sketch.</desc>
    <g id="icon_mommy" stroke="none" stroke-width="1" fill="none" fill-rule="evenodd">
        <path d="M10.348,5.984 L10.348,19.272 L6.3,19.272 L6.3,20.856 L4.782,20.856 L4.782,5.984 L10.348,5.984 Z M6.3,17.798 L8.852,17.798 L8.852,7.436 L6.3,7.436 L6.3,17.798 Z M16.464,4.246 L18.048,4.246 L18.048,11.814 L23.372,11.814 L23.372,13.332 L19.478,13.332 C20.358,16.28 21.942,18.92 24.208,21.23 L23.108,22.572 C20.798,19.822 19.192,16.742 18.29,13.332 L18.048,13.332 L18.048,24.046 L16.464,24.046 L16.464,13.332 L16.2,13.332 C15.254,17.138 13.626,20.262 11.316,22.682 L10.458,21.252 C12.57,19.184 14.11,16.544 15.034,13.332 L11.448,13.332 L11.448,11.814 L16.464,11.814 L16.464,4.246 Z M21.678,5.038 L23.108,5.698 C22.492,7.414 21.678,9.108 20.71,10.736 L19.346,10.032 C20.314,8.338 21.106,6.666 21.678,5.038 Z M12.922,5.39 C13.78,6.798 14.55,8.338 15.21,10.054 L13.912,10.714 C13.208,8.954 12.416,7.37 11.536,5.984 L12.922,5.39 Z" id="咪" fill="#FFFFFF" fill-rule="nonzero"></path>
    </g>
</svg>