<?xml version="1.0" encoding="UTF-8"?>
<svg width="28px" height="28px" viewBox="0 0 28 28" version="1.1" xmlns="http://www.w3.org/2000/svg" xmlns:xlink="http://www.w3.org/1999/xlink">
    <!-- Generator: Sketch 54 (76480) - https://sketchapp.com -->
    <title>icon_integral</title>
    <desc>Created with Sketch.</desc>
    <g id="icon_integral" stroke="none" stroke-width="1" fill="none" fill-rule="evenodd">
        <path d="M12.2952423,10.7048604 C15.1628683,10.7048604 18.1457758,10.0864364 19.9355203,8.90888936 L19.9355203,11.0536063 L21.5941322,11.0536063 L21.5941322,6.35753739 C21.5941322,3.53509547 16.805629,2.01162632 12.2995654,2.01162632 C7.79061967,2.01162632 3.00067549,3.5365074 3.00067549,6.35753739 L3.00067549,19.1721861 C3.00067549,21.99604 7.78917867,23.5195091 12.2952423,23.5195091 L12.2952423,21.8943813 C7.56293882,21.8943813 4.65784631,20.3073754 4.65784631,19.1707742 L4.65784631,15.3204495 C6.4475908,16.4951727 9.42761625,17.1164206 12.2952423,17.1164206 L12.2952423,15.4898807 C7.56293882,15.4898807 4.65784631,13.9028749 4.65784631,12.7662737 L4.65784631,8.91171319 C6.4475908,10.0864364 9.42905727,10.7048604 12.2952423,10.7048604 Z M12.2935107,3.41 C17.1859979,3.41 20.19,5.05608605 20.19,6.23646448 C20.19,7.41391395 17.1859979,9.06 12.2935107,9.06 C7.40251273,9.06 4.4,7.41391395 4.4,6.23499999 C4.4,5.05608603 7.40549142,3.40999997 12.2935107,3.41 Z M19.7280137,11.5943743 C15.611025,11.5943743 13.4595849,13.146082 13.4595849,14.6780228 L13.4595849,22.9123806 C13.4595849,24.4443213 15.613907,25.996029 19.7280137,25.996029 C23.8133001,25.996029 25.9632991,24.4669121 25.9964425,22.9462668 L25.9993245,22.9462668 L25.9993245,14.6766108 C25.9964425,13.1446701 23.8450024,11.5929624 19.7280137,11.5929624 L19.7280137,11.5943743 Z M19.7307608,13 C22.9444587,13 24.6,14.023647 24.6,14.4599324 C24.6,14.8976298 22.9444587,15.9198649 19.7307608,15.9198649 C16.517063,15.9198649 14.86,14.8962178 14.86,14.4613444 C14.86,14.023647 16.517063,13 19.7292392,13 L19.7307608,13 Z M19.73,24.5953824 C16.5168041,24.5953824 14.86,23.5050445 14.86,23.040335 L14.86,20.9483902 C15.9706217,21.5439403 17.5985192,21.9409736 19.7284786,21.9409736 C21.8599594,21.9409736 23.4863355,21.5439403 24.6,20.9483902 L24.6,23.0418389 C24.6,23.5080524 22.9416745,24.5983902 19.73,24.5983902 L19.73,24.5953824 Z M19.73,20.36 C16.5168041,20.36 14.86,19.214314 14.86,18.7266873 L14.86,16.53 C15.9706217,17.1549197 17.5985192,17.5715328 19.7284786,17.5715328 C21.8599594,17.5715328 23.4863355,17.1549197 24.6,16.53 L24.6,18.7266873 C24.6,19.2158921 22.9416745,20.36 19.73,20.36 Z" id="形状" fill="#FFFFFF" fill-rule="nonzero"></path>
    </g>
</svg>