<?xml version="1.0" encoding="UTF-8"?>
<svg width="28px" height="28px" viewBox="0 0 28 28" version="1.1" xmlns="http://www.w3.org/2000/svg" xmlns:xlink="http://www.w3.org/1999/xlink">
    <!-- Generator: Sketch 54 (76480) - https://sketchapp.com -->
    <title>icon_consumption</title>
    <desc>Created with Sketch.</desc>
    <g id="icon_consumption" stroke="none" stroke-width="1" fill="none" fill-rule="evenodd">
        <rect id="矩形" fill="#FFFFFF" x="5" y="18.7743138" width="6" height="1.8" rx="0.9"></rect>
        <path d="M23.2695312,25.4650115 L4.73046875,25.4650115 C2.83967887,25.4650115 1.3,23.9381732 1.3,22.0557092 L1.3,9.09756963 C1.3,7.21672236 2.84039612,5.6882673 4.73046875,5.6882673 L23.2695312,5.6882673 C25.1612309,5.6882673 26.7,7.21601299 26.7,9.09756963 L26.7,22.0557092 C26.7,23.9381732 25.1603211,25.4650115 23.2695312,25.4650115 Z M23.2695313,24.0650115 C24.3897349,24.0650115 25.3,23.1623378 25.3,22.0557092 L25.3,9.09756963 C25.3,7.99147376 24.3902765,7.0882673 23.2695313,7.0882673 L4.73046875,7.0882673 C3.61116638,7.0882673 2.7,7.99237038 2.7,9.09756963 L2.7,22.0557092 C2.7,23.1623378 3.61026509,24.0650115 4.73046875,24.0650115 L23.2695313,24.0650115 Z" id="路径" fill="#FFFFFF" fill-rule="nonzero"></path>
        <path d="M6.20523297,7.04355176 L20.3253625,2.7133787 C20.474554,2.66762663 20.6339073,2.74388968 20.6918625,2.88877776 L22.3500663,7.03428729 L23.6499337,6.51434034 L21.9917299,2.36883081 C21.6633169,1.54779835 20.7603153,1.11564108 19.9148966,1.37490281 L5.79476703,5.70507587 L6.20523297,7.04355176 Z" id="路径-5" fill="#FFFFFF" fill-rule="nonzero"></path>
    </g>
</svg>