<?xml version="1.0" encoding="UTF-8"?>
<svg width="28px" height="28px" viewBox="0 0 28 28" version="1.1" xmlns="http://www.w3.org/2000/svg" xmlns:xlink="http://www.w3.org/1999/xlink">
    <!-- Generator: Sketch 54 (76480) - https://sketchapp.com -->
    <title>icon_freight</title>
    <desc>Created with Sketch.</desc>
    <g id="icon_freight" stroke="none" stroke-width="1" fill="none" fill-rule="evenodd">
        <path d="M1.5,12.0500091 L1.5,6 C1.5,4.8954305 2.3954305,4 3.5,4 L24.5,4 C25.6045695,4 26.5,4.8954305 26.5,6 L26.5,12.0500091 C25.3588798,12.2816442 24.5,13.290521 24.5,14.5 C24.5,15.709479 25.3588798,16.7183558 26.5,16.9499909 L26.5,22 C26.5,23.1045695 25.6045695,24 24.5,24 L3.5,24 C2.3954305,24 1.5,23.1045695 1.5,22 L1.5,16.9499909 C2.64112016,16.7183558 3.5,15.709479 3.5,14.5 C3.5,13.290521 2.64112016,12.2816442 1.5,12.0500091 Z M2.9,11.0930852 C4.10367883,11.765061 4.9,13.0504382 4.9,14.5 C4.9,15.9495618 4.10367883,17.234939 2.9,17.9069148 L2.9,22 C2.9,22.3313708 3.16862915,22.6 3.5,22.6 L24.5,22.6 C24.8313708,22.6 25.1,22.3313708 25.1,22 L25.1,17.9069148 C23.8963212,17.234939 23.1,15.9495618 23.1,14.5 C23.1,13.0504382 23.8963212,11.765061 25.1,11.0930852 L25.1,6 C25.1,5.66862915 24.8313708,5.4 24.5,5.4 L3.5,5.4 C3.16862915,5.4 2.9,5.66862915 2.9,6 L2.9,11.0930852 Z" id="形状结合" fill="#FFFFFF" fill-rule="nonzero"></path>
        <path d="M9.988,9.068 C10.714,9.651 11.341,10.223 11.858,10.795 L11.099,11.532 C10.67,10.982 10.054,10.399 9.262,9.761 L9.988,9.068 Z M16.291,18.946 C15.697,18.946 15.059,18.935 14.366,18.924 C13.662,18.913 13.09,18.847 12.639,18.737 C12.199,18.605 11.825,18.341 11.495,17.967 C11.352,17.78 11.22,17.692 11.088,17.692 C10.857,17.692 10.461,18.187 9.9,19.177 L9.13,18.462 C9.68,17.571 10.186,17.01 10.626,16.79 L10.626,13.677 L9.141,13.677 L9.141,12.709 L11.605,12.709 L11.605,16.878 C11.649,16.922 11.693,16.966 11.748,17.032 C12.001,17.329 12.265,17.549 12.529,17.692 C12.848,17.846 13.332,17.945 13.97,17.967 C14.586,17.978 15.312,17.989 16.148,17.989 C16.687,17.989 17.237,17.978 17.798,17.967 C18.348,17.956 18.777,17.934 19.085,17.912 L18.821,18.946 L16.291,18.946 Z M12.98,9.519 L18.128,9.519 L18.128,10.487 L12.98,10.487 L12.98,9.519 Z M12.287,12.005 L18.931,12.005 L18.931,12.995 L15.543,12.995 C15.015,14.304 14.52,15.305 14.047,15.998 C15.279,15.844 16.313,15.668 17.16,15.448 C16.918,14.898 16.665,14.381 16.401,13.886 L17.248,13.611 C17.82,14.612 18.337,15.756 18.788,17.054 L17.853,17.296 C17.743,16.966 17.633,16.658 17.523,16.35 C16.335,16.647 14.773,16.889 12.859,17.087 L12.595,16.185 C13.035,16.053 13.673,14.986 14.498,12.995 L12.287,12.995 L12.287,12.005 Z" id="运" fill="#FFFFFF" fill-rule="nonzero"></path>
    </g>
</svg>