<?xml version="1.0" encoding="UTF-8"?>
<svg width="28px" height="28px" viewBox="0 0 28 28" version="1.1" xmlns="http://www.w3.org/2000/svg" xmlns:xlink="http://www.w3.org/1999/xlink">
    <!-- Generator: Sketch 54 (76480) - https://sketchapp.com -->
    <title>icon_data_activity</title>
    <desc>Created with Sketch.</desc>
    <g id="icon_data_activity" stroke="none" stroke-width="1" fill="none" fill-rule="evenodd">
        <rect id="矩形" x="0" y="0" width="28" height="28"></rect>
        <path d="M5.27329397,22.5921931 L2.75086896,22.5921931 C2.55455172,22.5921931 2.36627514,22.5144279 2.22745789,22.376005 C2.08864065,22.2375821 2.01065394,22.0498404 2.01065395,21.8540809 L2.01065395,12.0019872 C2.01065394,11.8062277 2.08864065,11.618486 2.22745789,11.4800631 C2.36627514,11.3416402 2.55455172,11.2638751 2.75086896,11.2638751 L5.27329397,11.2638751 C5.46961121,11.2638751 5.6578878,11.3416402 5.79670505,11.4800631 C5.9355223,11.618486 6.01350901,11.8062277 6.01350901,12.0019872 L6.01350901,21.8540809 C6.01350901,22.0498404 5.9355223,22.2375821 5.79670505,22.376005 C5.6578878,22.5144279 5.46961121,22.5921931 5.27329397,22.5921931 Z M3.49108399,21.1159688 L4.53421775,21.1159688 L4.53421775,12.7400994 L3.49108399,12.7400994 L3.49108399,21.1159688 Z M11.2656193,22.5921931 L8.74319424,22.5921931 C8.54687701,22.5921931 8.35860042,22.5144279 8.21978318,22.376005 C8.08096594,22.2375821 8.00297922,22.0498404 8.00297923,21.8540809 L8.00297923,7.84811923 C8.00297922,7.65235972 8.08096594,7.46461801 8.21978318,7.32619513 C8.35860042,7.18777225 8.54687701,7.11000709 8.74319424,7.11000709 L11.2656193,7.11000709 C11.4619365,7.11000708 11.6502131,7.18777224 11.7890303,7.32619512 C11.9278476,7.464618 12.0058343,7.65235972 12.0058343,7.84811923 L12.0058343,21.8529454 C12.0061366,22.0489015 11.9282834,22.2369351 11.7894334,22.3756037 C11.6505833,22.5142723 11.462134,22.5921933 11.2656193,22.5921931 L11.2656193,22.5921931 Z M9.48227047,21.1159688 L10.5254043,21.1159688 L10.5254043,8.58623136 L9.48227047,8.58623136 L9.48227047,21.1159688 Z" id="形状" fill="#FFFFFF" fill-rule="nonzero"></path>
        <path d="M23.249131,22.5921931 L20.7255672,22.5921931 C20.52925,22.5921931 20.3409734,22.5144279 20.2021562,22.376005 C20.0633389,22.2375821 19.9853522,22.0498404 19.9853522,21.8540809 L19.9853522,12.0019872 C19.9853522,11.8062277 20.0633389,11.618486 20.2021562,11.4800631 C20.3409734,11.3416402 20.52925,11.2638751 20.7255672,11.2638751 L23.249131,11.2638751 C23.4454483,11.2638751 23.6337249,11.3416402 23.7725421,11.4800631 C23.9113593,11.618486 23.9893461,11.8062277 23.9893461,12.0019872 L23.9893461,21.8540809 C23.9896489,22.0499328 23.9117595,22.2378501 23.7728765,22.3763385 C23.6339936,22.5148269 23.445541,22.5924951 23.249131,22.5921931 L23.249131,22.5921931 Z M21.466921,21.1159688 L22.508916,21.1159688 L22.508916,12.7400994 L21.466921,12.7400994 L21.466921,21.1159688 Z M23.249131,26 L2.75086896,26 C2.34205949,26 2.01065393,25.6695359 2.01065393,25.2618879 C2.01065393,24.8542398 2.34205949,24.5237757 2.75086896,24.5237757 L23.249131,24.5237757 C23.6579405,24.5237757 23.9893461,24.8542398 23.9893461,25.2618879 C23.9893461,25.6695359 23.6579405,26 23.249131,26 L23.249131,26 Z" id="形状" fill="#FFFFFF" fill-rule="nonzero"></path>
        <path d="M17.2568058,22.5921931 L14.7343807,22.5921931 C14.5380635,22.5921931 14.3497869,22.5144279 14.2109697,22.376005 C14.0721524,22.2375821 13.9941657,22.0498404 13.9941657,21.8540809 L13.9941657,2.73811213 C13.9941657,2.54235261 14.0721524,2.3546109 14.2109697,2.21618803 C14.3497869,2.07776515 14.5380635,1.99999999 14.7343807,2 L17.2568058,2 C17.6656152,2 17.9970208,2.33046405 17.9970208,2.73811213 L17.9970208,21.8540809 C17.9970208,22.0498404 17.9190341,22.2375821 17.7802168,22.376005 C17.6413996,22.5144279 17.453123,22.5921931 17.2568058,22.5921931 Z M15.5,3 L15.5,21 L16.5,21 L16.5,3 L15.5,3 Z" id="形状结合" fill="#FFFFFF" fill-rule="nonzero"></path>
    </g>
</svg>