<?xml version="1.0" encoding="UTF-8"?>
<svg width="28px" height="28px" viewBox="0 0 28 28" version="1.1" xmlns="http://www.w3.org/2000/svg" xmlns:xlink="http://www.w3.org/1999/xlink">
    <!-- Generator: Sketch 54 (76480) - https://sketchapp.com -->
    <title>icon_promotion</title>
    <desc>Created with Sketch.</desc>
    <g id="icon_promotion" stroke="none" stroke-width="1" fill="none" fill-rule="evenodd">
        <path d="M11.0611069,24.2722677 L3.7168189,16.9349831 C3.2576153,16.4763487 3.00475141,15.8666344 3.00494938,15.218216 C3.00514736,14.570342 3.25806074,13.9613701 3.71709111,13.5034286 C3.80051294,13.4200315 12.1008481,5.12694713 13.0786479,4.14885039 C14.0774331,3.15224297 15.1455096,3.01492238 16.1509516,3.01492238 C16.9329539,3.01492238 22.5677008,3.01375928 22.5677008,3.01375928 C23.2163172,3.01375928 23.82618,3.26607874 24.2850866,3.72424297 C24.7446367,4.18297638 24.9973768,4.79288864 24.9968076,5.44152981 C24.9968076,5.4412081 24.9950754,10.765901 24.9950754,11.6948751 C24.9942092,12.7292958 24.8587199,13.9209831 23.8606277,14.9205107 C23.3576715,15.4208931 14.5856355,24.1841935 14.4970911,24.2726884 C14.0381102,24.7312981 13.4278763,24.9839888 12.7789134,24.9839888 C12.1297525,24.9839888 11.5196918,24.7311991 11.0611069,24.2722677 Z M23.5968082,5.44030132 C23.5970507,5.16387937 23.4922187,4.91092459 23.2959389,4.71499354 C23.0995151,4.5188876 22.8454032,4.41375928 22.5679898,4.41375925 C21.8636408,4.41390464 21.8636408,4.41390464 19.6528473,4.41434081 L19.314774,4.41440573 C17.6121493,4.41473098 16.4710769,4.41492238 16.1509516,4.41492238 C15.1723957,4.41492238 14.6258957,4.58271794 14.0687477,5.13864957 C13.6625691,5.54495158 11.9953694,7.21101062 9.43447493,9.76986031 C7.81652017,11.3865232 4.69339195,14.5070227 4.70586439,14.4945529 C4.50992862,14.6900239 4.40503367,14.9426008 4.40494932,15.2186434 C4.40486489,15.4951537 4.50987172,15.7483806 4.70629605,15.9445615 L12.0514301,23.2826921 C12.2474202,23.4788303 12.5012197,23.5839888 12.7788886,23.5839888 C13.0566968,23.5839888 13.3110282,23.4786935 13.5074184,23.2824622 C14.4933397,22.297092 22.4918049,14.3074893 22.8699671,13.9312727 C23.4118362,13.3886245 23.5941878,12.7543364 23.5950754,11.6948751 C23.5950754,11.2882309 23.5954002,10.0285038 23.5959416,8.2192976 C23.5962664,7.14836218 23.5962664,7.14836218 23.596537,6.28739968 L23.5967333,5.67158347 L23.5967883,5.50104574 L23.5968028,5.45634902 L23.5968065,5.44492211 L24.7156115,5.44128306 L23.5968082,5.44030132 Z" id="路径" fill="#FFFFFF" fill-rule="nonzero"></path>
        <path d="M16.9611159,11.3659145 C16.4566254,10.8614241 16.1792126,10.1912778 16.1794848,9.47849269 C16.1798065,8.76565804 16.4579123,8.09531384 16.9626007,7.59099663 C17.4662992,7.08727334 18.1366682,6.80973678 18.8501215,6.80973678 C19.5634016,6.80973678 20.2339685,7.0871991 20.7381867,7.59092238 C21.7784972,8.63009449 21.7783982,10.3232036 20.737865,11.3651226 C20.2324342,11.8694646 19.5619415,12.1468774 18.8491564,12.1468774 C18.1363217,12.1468526 17.4658043,11.8695141 16.9611159,11.3659145 Z M18.8491564,10.7468526 C19.1911571,10.7468645 19.5060029,10.6165635 19.747257,10.3758321 C20.2417525,9.88067799 20.2418146,9.07390942 19.7487235,8.58135786 C19.5070585,8.33993011 19.1923959,8.20973678 18.8501215,8.20973678 C18.5079151,8.20973678 18.1936718,8.33981262 17.9521859,8.58131025 C17.710068,8.82325005 17.5796388,9.13762089 17.5794847,9.47902735 C17.5793543,9.82038443 17.7092995,10.1341992 17.9499957,10.3748965 C18.1922311,10.6166093 18.5071157,10.7468526 18.8491564,10.7468526 Z" id="路径" fill="#FFFFFF" fill-rule="nonzero"></path>
    </g>
</svg>