<?xml version="1.0" encoding="UTF-8"?>
<svg width="28px" height="28px" viewBox="0 0 28 28" version="1.1" xmlns="http://www.w3.org/2000/svg" xmlns:xlink="http://www.w3.org/1999/xlink">
    <!-- Generator: Sketch 54 (76480) - https://sketchapp.com -->
    <title>icon_fullreduction</title>
    <desc>Created with Sketch.</desc>
    <g id="icon_fullreduction" stroke="none" stroke-width="1" fill="none" fill-rule="evenodd">
        <path d="M14.5966128,2.67716792 C13.9400263,2.0186578 12.6093442,1.89683342 11.5960123,2.07353363 L5.41862726,3.07117648 C4.22839484,3.25825685 3.29750596,4.19943078 3.12057437,5.39461974 L2.13569455,11.9500881 C2.02626345,12.7095698 1.96279343,13.8092818 2.71239639,14.5841287 L3.83625369,15.7112785 C4.01447439,15.8983619 4.2797275,15.9739957 4.52942651,15.9089284 C4.77912551,15.8438612 4.97412077,15.6482946 5.03899796,15.3978641 C5.10387515,15.1474335 5.02846234,14.8814033 4.84192541,14.7026605 L3.73229415,13.5897784 C3.49920592,13.3439346 3.43792453,12.8741973 3.54297837,12.1564213 L4.52785819,5.60424547 C4.61489038,5.02332839 5.06929762,4.56714482 5.64843254,4.47929066 L11.8345721,3.4805503 C12.6553053,3.33787311 13.4125684,3.50359815 13.594224,3.68578595 L18.7954837,8.90228373 L2.35455672,18.4978739 C2.07645096,18.6599565 1.94140663,18.9890488 2.02519314,19.3005068 C2.10897965,19.6119647 2.39074395,19.8282718 2.71239639,19.8280644 C2.83777405,19.8283733 2.96094986,19.795026 3.06914174,19.7314829 L21.1044797,9.20410088 L14.5966128,2.67716792 Z M25.1654675,13.2769861 L21.8912893,9.99321552 L7.05462205,18.9379782 L13.2582706,25.163094 C13.7919413,25.698924 14.5161109,26.0000003 15.2712555,26.0000003 C16.0264001,26.0000003 16.7505696,25.698924 17.2842404,25.163094 L25.1632789,17.2609724 C26.260695,16.1613803 26.2616748,14.3777903 25.1654675,13.2769861 L25.1654675,13.2769861 Z M24.1597958,16.2468668 L16.2807573,24.1489884 C16.0138558,24.4174078 15.651419,24.5682663 15.2734441,24.5682663 C14.8954692,24.5682663 14.5330324,24.4174078 14.2661309,24.1489884 L9.3472034,19.22004 L21.6713328,11.7898507 L24.1597958,14.2856041 C24.6983555,14.8277917 24.6983555,15.7046792 24.1597958,16.2468668 L24.1597958,16.2468668 Z" id="形状" fill="#FFFFFF" fill-rule="nonzero"></path>
        <path d="M10.7369783,8.19438533 C10.7369783,6.89118037 9.68360794,5.83472401 8.38420981,5.83472401 C7.08481168,5.83472401 6.03144136,6.89118037 6.03144136,8.19438533 C6.03144136,9.49759029 7.08481168,10.5540466 8.38420981,10.5540466 C9.68310782,10.5528365 10.7357717,9.49708871 10.7369783,8.19438533 L10.7369783,8.19438533 Z M7.45404555,8.19438533 C7.45404555,7.67916477 7.87049427,7.26149598 8.38420981,7.26149598 C8.89792534,7.26149598 9.31437407,7.67916477 9.31437407,8.19438533 C9.31437407,8.70960589 8.89792534,9.12727468 8.38420981,9.12727468 C7.87074426,9.12666989 7.45464857,8.70935517 7.45404555,8.19438533 Z" id="形状" fill="#FFFFFF" fill-rule="nonzero"></path>
    </g>
</svg>