<?xml version="1.0" encoding="UTF-8"?>
<svg width="28px" height="28px" viewBox="0 0 28 28" version="1.1" xmlns="http://www.w3.org/2000/svg" xmlns:xlink="http://www.w3.org/1999/xlink">
    <!-- Generator: Sketch 54 (76480) - https://sketchapp.com -->
    <title>icon_manual</title>
    <desc>Created with Sketch.</desc>
    <g id="icon_manual" stroke="none" stroke-width="1" fill="none" fill-rule="evenodd">
        <path d="M1.5,11.0500091 L1.5,5.5 C1.5,4.3954305 2.3954305,3.5 3.5,3.5 L24.5,3.5 C25.6045695,3.5 26.5,4.3954305 26.5,5.5 L26.5,11.0500091 C25.3588798,11.2816442 24.5,12.290521 24.5,13.5 C24.5,14.709479 25.3588798,15.7183558 26.5,15.9499909 L26.5,21.5 C26.5,22.6045695 25.6045695,23.5 24.5,23.5 L3.5,23.5 C2.3954305,23.5 1.5,22.6045695 1.5,21.5 L1.5,15.9499909 C2.64112016,15.7183558 3.5,14.709479 3.5,13.5 C3.5,12.290521 2.64112016,11.2816442 1.5,11.0500091 Z M2.9,10.0930852 C4.10367883,10.765061 4.9,12.0504382 4.9,13.5 C4.9,14.9495618 4.10367883,16.234939 2.9,16.9069148 L2.9,21.5 C2.9,21.8313708 3.16862915,22.1 3.5,22.1 L24.5,22.1 C24.8313708,22.1 25.1,21.8313708 25.1,21.5 L25.1,16.9069148 C23.8963212,16.234939 23.1,14.9495618 23.1,13.5 C23.1,12.0504382 23.8963212,10.765061 25.1,10.0930852 L25.1,5.5 C25.1,5.16862915 24.8313708,4.9 24.5,4.9 L3.5,4.9 C3.16862915,4.9 2.9,5.16862915 2.9,5.5 L2.9,10.0930852 Z" id="形状结合" fill="#FFFFFF" fill-rule="nonzero"></path>
        <path d="M9.715,11.955 L10.584,8.743 L11.629,8.919 L11.057,10.954 L12.685,10.954 C12.894,10.14 13.059,9.282 13.191,8.38 L14.258,8.512 C14.126,9.381 13.961,10.195 13.774,10.954 L18.812,10.954 L18.812,11.955 L13.51,11.955 C13.4,12.318 13.279,12.659 13.169,12.989 L17.569,12.989 L17.569,13.869 C17.283,14.771 16.744,15.585 15.93,16.311 C16.766,16.773 17.778,17.202 18.955,17.598 L18.416,18.588 C17.085,18.104 15.963,17.565 15.061,16.993 C14.192,17.598 13.125,18.148 11.86,18.643 L11.31,17.653 C12.41,17.257 13.356,16.817 14.137,16.344 C13.422,15.772 12.883,15.156 12.531,14.507 C11.739,16.135 10.738,17.433 9.539,18.401 L9,17.433 C10.518,16.091 11.651,14.265 12.399,11.955 L9.715,11.955 Z M13.29,13.935 C13.653,14.584 14.225,15.189 15.006,15.739 C15.699,15.178 16.205,14.573 16.513,13.935 L13.29,13.935 Z M16.106,8.391 C16.865,8.963 17.503,9.546 18.02,10.129 L17.272,10.877 C16.832,10.305 16.216,9.711 15.402,9.084 L16.106,8.391 Z" id="发" fill="#FFFFFF" fill-rule="nonzero"></path>
    </g>
</svg>