<?xml version="1.0" encoding="UTF-8"?>
<svg width="28px" height="28px" viewBox="0 0 28 28" version="1.1" xmlns="http://www.w3.org/2000/svg" xmlns:xlink="http://www.w3.org/1999/xlink">
    <!-- Generator: Sketch 54 (76480) - https://sketchapp.com -->
    <title>icon_printing</title>
    <desc>Created with Sketch.</desc>
    <g id="icon_printing" stroke="none" stroke-width="1" fill="none" fill-rule="evenodd">
        <path d="M2,14 C2,12.4931012 2.70981966,11.1519897 3.81334052,10.2927839 C3.65246603,9.81885206 3.56521739,9.31091938 3.56521739,8.7826087 C3.56521739,6.18927161 5.66753248,4.08695652 8.26086957,4.08695652 C8.84162873,4.08695652 9.39776295,4.19238842 9.91117611,4.38515607 C10.71763,2.96106174 12.246581,2 14,2 C15.6951342,2 17.1804753,2.89823098 18.006026,4.24469566 C18.3924792,4.14179924 18.7985307,4.08695652 19.2173913,4.08695652 C21.8107284,4.08695652 23.9130435,6.18927161 23.9130435,8.7826087 C23.9130435,9.20146933 23.8582008,9.60752076 23.7553043,9.99397398 C25.101769,10.8195247 26,12.3048658 26,14 C26,15.6951342 25.101769,17.1804753 23.7553043,18.006026 C23.8582008,18.3924792 23.9130435,18.7985307 23.9130435,19.2173913 C23.9130435,21.8107284 21.8107284,23.9130435 19.2173913,23.9130435 C18.7985307,23.9130435 18.3924792,23.8582008 18.006026,23.7553043 C17.1804753,25.101769 15.6951342,26 14,26 C12.3048658,26 10.8195247,25.101769 9.99397398,23.7553043 C9.60752076,23.8582008 9.20146933,23.9130435 8.7826087,23.9130435 C6.18927161,23.9130435 4.08695652,21.8107284 4.08695652,19.2173913 C4.08695652,18.7985307 4.14179924,18.3924792 4.24469566,18.006026 C2.89823098,17.1804753 2,15.6951342 2,14 Z M5.59756198,18.3662381 C5.52442991,18.6409038 5.48695652,18.9260179 5.48695652,19.2173913 C5.48695652,21.0375297 6.96247026,22.5130435 8.7826087,22.5130435 C9.07398209,22.5130435 9.35909615,22.4755701 9.63376193,22.402438 L10.6420856,22.1339634 L11.187498,23.0235253 C11.7837971,23.9960831 12.8389695,24.6 14,24.6 C15.1610305,24.6 16.2162029,23.9960831 16.812502,23.0235253 L17.3579144,22.1339634 L18.3662381,22.402438 C18.6409038,22.4755701 18.9260179,22.5130435 19.2173913,22.5130435 C21.0375297,22.5130435 22.5130435,21.0375297 22.5130435,19.2173913 C22.5130435,18.9260179 22.4755701,18.6409038 22.402438,18.3662381 L22.1339634,17.3579144 L23.0235253,16.812502 C23.9960831,16.2162029 24.6,15.1610305 24.6,14 C24.6,12.8389695 23.9960831,11.7837971 23.0235253,11.187498 L22.1339634,10.6420856 L22.402438,9.63376193 C22.4755701,9.35909615 22.5130435,9.07398209 22.5130435,8.7826087 C22.5130435,6.96247026 21.0375297,5.48695652 19.2173913,5.48695652 C18.9260179,5.48695652 18.6409038,5.52442991 18.3662381,5.59756198 L17.3579144,5.86603664 L16.812502,4.97647468 C16.2162029,4.0039169 15.1610305,3.4 14,3.4 C12.7983188,3.4 11.7112927,4.04748523 11.1294027,5.07502857 L10.5396048,6.11653618 L9.41907128,5.69581729 C9.05280875,5.55829925 8.66281556,5.48695652 8.26086957,5.48695652 C6.44073113,5.48695652 4.96521739,6.96247026 4.96521739,8.7826087 C4.96521739,9.1488184 5.02442708,9.50511419 5.13904586,9.84277797 L5.45911526,10.7856937 L4.67342595,11.3974346 C3.87468543,12.0193372 3.4,12.9690856 3.4,14 C3.4,15.1610305 4.0039169,16.2162029 4.97647468,16.812502 L5.86603664,17.3579144 L5.59756198,18.3662381 Z" id="形状结合" fill="#FFFFFF" fill-rule="nonzero"></path>
        <path d="M9.60648821,14.1360643 L13.6726956,14.1634278 C14.0821281,14.1661831 14.4139218,14.4963524 14.4186864,14.9057665 L14.4186864,14.9057665 C14.4233394,15.3055965 14.1029852,15.6334948 13.7031552,15.6381478 C13.698723,15.6381994 13.6942904,15.6382103 13.6898581,15.6381804 L9.62365068,15.6108169 C9.21421814,15.6080616 8.88242446,15.2778923 8.87765989,14.8684782 L8.87765989,14.8684782 C8.87300686,14.4686482 9.19336108,14.1407499 9.59319107,14.1360969 C9.59762326,14.1360453 9.60205583,14.1360344 9.60648821,14.1360643 Z" id="矩形" fill="#FFFFFF" transform="translate(11.648173, 14.887122) rotate(45.000000) translate(-11.648173, -14.887122) "></path>
        <path d="M12.132869,13.1215106 L18.9878337,13.1670703 C19.3922086,13.1697579 19.7199378,13.4958079 19.7247024,13.9001637 L19.7247024,13.9001637 C19.7293552,14.2950221 19.413031,14.6188898 19.0181727,14.6235425 C19.0137807,14.6235943 19.0093883,14.6236056 19.0049962,14.6235764 L12.1500315,14.5780167 C11.7456565,14.5753291 11.4179274,14.2492791 11.4131627,13.8449233 L11.4131627,13.8449233 C11.40851,13.4500649 11.7248341,13.1261972 12.1196925,13.1215445 C12.1240844,13.1214927 12.1284768,13.1214814 12.132869,13.1215106 Z" id="矩形" fill="#FFFFFF" transform="translate(15.568933, 13.872544) scale(-1, 1) rotate(45.000000) translate(-15.568933, -13.872544) "></path>
    </g>
</svg>