<?xml version="1.0" encoding="UTF-8"?>
<svg width="28px" height="28px" viewBox="0 0 28 28" version="1.1" xmlns="http://www.w3.org/2000/svg" xmlns:xlink="http://www.w3.org/1999/xlink">
    <!-- Generator: Sketch 54 (76480) - https://sketchapp.com -->
    <title>icon_register</title>
    <desc>Created with Sketch.</desc>
    <g id="icon_register" stroke="none" stroke-width="1" fill="none" fill-rule="evenodd">
        <path d="M8.5,4 L8.5,5.4 L19.5,5.4 L19.5,4 L21,4 L22,4 C23.1045695,4 24,4.8954305 24,6 L24,23 C24,24.1045695 23.1045695,25 22,25 L6,25 C4.8954305,25 4,24.1045695 4,23 L4,6 C4,4.8954305 4.8954305,4 6,4 L8.5,4 Z M6,5.4 C5.66862915,5.4 5.4,5.66862915 5.4,6 L5.4,23 C5.4,23.3313708 5.66862915,23.6 6,23.6 L22,23.6 C22.3313708,23.6 22.6,23.3313708 22.6,23 L22.6,6 C22.6,5.66862915 22.3313708,5.4 22,5.4 L6,5.4 Z" id="形状结合" fill="#FFFFFF" fill-rule="nonzero"></path>
        <rect id="矩形" fill="#FFFFFF" transform="translate(11.262742, 16.722742) rotate(45.000000) translate(-11.262742, -16.722742) " x="8.7627417" y="16.0227417" width="5" height="1.4" rx="0.7"></rect>
        <rect id="矩形" fill="#FFFFFF" transform="translate(15.326955, 15.321320) scale(-1, 1) rotate(45.000000) translate(-15.326955, -15.321320) " x="10.8269553" y="14.6213203" width="9" height="1.4" rx="0.7"></rect>
        <path d="M10,3 L18,3 C19.1045695,3 20,3.8954305 20,5 C20,6.1045695 19.1045695,7 18,7 L10,7 C8.8954305,7 8,6.1045695 8,5 C8,3.8954305 8.8954305,3 10,3 Z M10,4.4 C9.66862915,4.4 9.4,4.66862915 9.4,5 C9.4,5.33137085 9.66862915,5.6 10,5.6 L18,5.6 C18.3313708,5.6 18.6,5.33137085 18.6,5 C18.6,4.66862915 18.3313708,4.4 18,4.4 L10,4.4 Z" id="形状结合" fill="#FFFFFF"></path>
    </g>
</svg>